<svg xmlns="http://www.w3.org/2000/svg"><defs><font horiz-adv-x="1200"><font-face ascent="960" descent="-240" units-per-em="1200"/><missing-glyph horiz-adv-x="500"/><glyph horiz-adv-x="0"/><glyph horiz-adv-x="400"/><glyph unicode="&#x20;"/><glyph d="M600 1100q15 0 34-1.5t30-3.5l11-1q10-2 17.5-10.5t7.5-18.5v-224l158 158q7 7 18 8t19-6l106-106q7-8 6-19t-8-18l-158-158h224q10 0 18.5-7.5t10.5-17.5q6-41 6-75 0-15-1.5-34t-3.5-30l-1-11q-2-10-10.5-17.5t-18.5-7.5h-224l158-158q7-7 8-18t-6-19l-106-106q-8-7-19-6t-18 8l-158 158v-224q0-10-7.5-18.5t-17.5-10.5q-41-6-75-6-15 0-34 1.5t-30 3.5l-11 1q-10 2-17.5 10.5t-7.5 18.5v224l-158-158q-7-7-18-8t-19 6l-106 106q-7 8-6 19t8 18l158 158h-224q-10 0-18.5 7.5t-10.5 17.5q-6 41-6 75 0 15 1.5 34t3.5 30l1 11q2 10 10.5 17.5t18.5 7.5h224l-158 158q-7 7-8 18t6 19l106 106q8 7 19 6t18-8l158-158v224q0 10 7.5 18.5t17.5 10.5q41 6 75 6z" unicode="&#x2a;"/><glyph d="M450 1100h200q21 0 35.5-14.5t14.5-35.5v-350h350q21 0 35.5-14.5t14.5-35.5v-200q0-21-14.5-35.5t-35.5-14.5h-350v-350q0-21-14.5-35.5t-35.5-14.5h-200q-21 0-35.5 14.5t-14.5 35.5v350h-350q-21 0-35.5 14.5t-14.5 35.5v200q0 21 14.5 35.5t35.5 14.5h350v350q0 21 14.5 35.5t35.5 14.5z" unicode="&#x2b;"/><glyph unicode="&#xa0;"/><glyph d="M825 1100h250q10 0 12.5-5t-5.5-13l-364-364q-6-6-11-18h268q10 0 13-6t-3-14l-120-160q-6-8-18-14t-22-6h-125v-100h275q10 0 13-6t-3-14l-120-160q-6-8-18-14t-22-6h-125v-174q0-11-7.5-18.5t-18.5-7.5h-148q-11 0-18.5 7.5t-7.5 18.5v174h-275q-10 0-13 6t3 14l120 160q6 8 18 14t22 6h125v100h-275q-10 0-13 6t3 14l120 160q6 8 18 14t22 6h118q-5 12-11 18l-364 364q-8 8-5.5 13t12.5 5h250q25 0 43-18l164-164q8-8 18-8t18 8l164 164q18 18 43 18z" unicode="&#xa5;"/><glyph horiz-adv-x="650" unicode="&#x2000;"/><glyph horiz-adv-x="1300" unicode="&#x2001;"/><glyph horiz-adv-x="650" unicode="&#x2002;"/><glyph horiz-adv-x="1300" unicode="&#x2003;"/><glyph horiz-adv-x="433" unicode="&#x2004;"/><glyph horiz-adv-x="325" unicode="&#x2005;"/><glyph horiz-adv-x="216" unicode="&#x2006;"/><glyph horiz-adv-x="216" unicode="&#x2007;"/><glyph horiz-adv-x="162" unicode="&#x2008;"/><glyph horiz-adv-x="260" unicode="&#x2009;"/><glyph horiz-adv-x="72" unicode="&#x200a;"/><glyph horiz-adv-x="260" unicode="&#x202f;"/><glyph horiz-adv-x="325" unicode="&#x205f;"/><glyph d="M744 1198q242 0 354-189 60-104 66-209h-181q0 45-17.5 82.5t-43.5 61.5-58 40.5-60.5 24-51.5 7.5q-19 0-40.5-5.5t-49.5-20.5-53-38-49-62.5-39-89.5h379l-100-100h-300q-6-50-6-100h406l-100-100h-300q9-74 33-132t52.5-91 61.5-54.5 59-29 47-7.5q22 0 50.5 7.5t60.5 24.5 58 41 43.5 61 17.5 80h174q-30-171-128-278-107-117-274-117-206 0-324 158-36 48-69 133t-45 204h-217l100 100h112q1 47 6 100h-218l100 100h134q20 87 51 153.5t62 103.5q117 141 297 141z" unicode="&#x20ac;"/><glyph d="M428 1200h350q67 0 120-13t86-31 57-49.5 35-56.5 17-64.5 6.5-60.5.5-57v-16.5-16.5q0-36-.5-57t-6.5-61-17-65-35-57-57-50.5-86-31.5-120-13h-178l-2-100h288q10 0 13-6t-3-14l-120-160q-6-8-18-14t-22-6h-138v-175q0-11-5.5-18t-15.5-7h-149q-10 0-17.5 7.5t-7.5 17.5v175h-267q-10 0-13 6t3 14l120 160q6 8 18 14t22 6h117v100h-267q-10 0-13 6t3 14l120 160q6 8 18 14t22 6h117v475q0 10 7.5 17.5t17.5 7.5zM600 1000v-300h203q64 0 86.5 33t22.5 119q0 84-22.5 116t-86.5 32h-203z" unicode="&#x20bd;"/><glyph d="M250 700h800q21 0 35.5-14.5t14.5-35.5v-200q0-21-14.5-35.5t-35.5-14.5h-800q-21 0-35.5 14.5t-14.5 35.5v200q0 21 14.5 35.5t35.5 14.5z" unicode="&#x2212;"/><glyph d="M1000 1200v-150q0-21-14.5-35.5t-35.5-14.5h-50v-100q0-91-49.5-165.5t-130.5-109.5q81-35 130.5-109.5t49.5-165.5v-150h50q21 0 35.5-14.5t14.5-35.5v-150h-800v150q0 21 14.5 35.5t35.5 14.5h50v150q0 91 49.5 165.5t130.5 109.5q-81 35-130.5 109.5t-49.5 165.5v100h-50q-21 0-35.5 14.5t-14.5 35.5v150h800zM400 1000v-100q0-60 32.5-109.5t87.5-73.5q28-12 44-37t16-55-16-55-44-37q-55-24-87.5-73.5t-32.5-109.5v-150h400v150q0 60-32.5 109.5t-87.5 73.5q-28 12-44 37t-16 55 16 55 44 37q55 24 87.5 73.5t32.5 109.5v100h-400z" unicode="&#x231b;"/><glyph d="M0 0z" horiz-adv-x="500" unicode="&#x25fc;"/><glyph d="M503 1089q110 0 200.5-59.5t134.5-156.5q44 14 90 14 120 0 205-86.5t85-206.5q0-121-85-207.5t-205-86.5h-750q-79 0-135.5 57t-56.5 137q0 69 42.5 122.5t108.5 67.5q-2 12-2 37 0 153 108 260.5t260 107.5z" unicode="&#x2601;"/><glyph d="M774 1193.5q16-9.5 20.5-27t-5.5-33.5l-136-187 467-746h30q20 0 35-18.5t15-39.5v-42h-1200v42q0 21 15 39.5t35 18.5h30l468 746-135 183q-10 16-5.5 34t20.5 28 34 5.5 28-20.5l111-148 112 150q9 16 27 20.5t34-5zM600 200h377l-182 112-195 534v-646z" unicode="&#x26fa;"/><glyph d="M25 1100h1150q10 0 12.5-5t-5.5-13l-564-567q-8-8-18-8t-18 8l-564 567q-8 8-5.5 13t12.5 5zM18 882l264-264q8-8 8-18t-8-18l-264-264q-8-8-13-5.5t-5 12.5v550q0 10 5 12.5t13-5.5zM918 618l264 264q8 8 13 5.5t5-12.5v-550q0-10-5-12.5t-13 5.5l-264 264q-8 8-8 18t8 18zM818 482l364-364q8-8 5.5-13t-12.5-5h-1150q-10 0-12.5 5t5.5 13l364 364q8 8 18 8t18-8l164-164q8-8 18-8t18 8l164 164q8 8 18 8t18-8z" unicode="&#x2709;"/><glyph d="M1011 1210q19 0 33-13l153-153q13-14 13-33t-13-33l-99-92-214 214 95 96q13 14 32 14zM1013 800l-615-614-214 214 614 614zM317 96l-333-112 110 335z" unicode="&#x270f;"/><glyph d="M700 650v-550h250q21 0 35.5-14.5t14.5-35.5v-50h-800v50q0 21 14.5 35.5t35.5 14.5h250v550l-500 550h1200z" unicode="&#xe001;"/><glyph d="M368 1017l645 163q39 15 63 0t24-49v-831q0-55-41.5-95.5t-111.5-63.5q-79-25-147-4.5t-86 75 25.5 111.5 122.5 82q72 24 138 8v521l-600-155v-606q0-42-44-90t-109-69q-79-26-147-5.5t-86 75.5 25.5 111.5 122.5 82.5q72 24 138 7v639q0 38 14.5 59t53.5 34z" unicode="&#xe002;"/><glyph d="M500 1191q100 0 191-39t156.5-104.5 104.5-156.5 39-191l-1-2 1-5q0-141-78-262l275-274q23-26 22.5-44.5t-22.5-42.5l-59-58q-26-20-46.5-20t-39.5 20l-275 274q-119-77-261-77l-5 1-2-1q-100 0-191 39t-156.5 104.5-104.5 156.5-39 191 39 191 104.5 156.5 156.5 104.5 191 39zM500 1022q-88 0-162-43t-117-117-43-162 43-162 117-117 162-43 162 43 117 117 43 162-43 162-117 117-162 43z" unicode="&#xe003;"/><glyph d="M649 949q48 68 109.5 104t121.5 38.5 118.5-20 102.5-64 71-100.5 27-123q0-57-33.5-117.5t-94-124.5-126.5-127.5-150-152.5-146-174q-62 85-145.5 174t-150 152.5-126.5 127.5-93.5 124.5-33.5 117.5q0 64 28 123t73 100.5 104 64 119 20 120.5-38.5 104.5-104z" unicode="&#xe005;"/><glyph d="M407 800l131 353q7 19 17.5 19t17.5-19l129-353h421q21 0 24-8.5t-14-20.5l-342-249 130-401q7-20-.5-25.5t-24.5 6.5l-343 246-342-247q-17-12-24.5-6.5t-.5 25.5l130 400-347 251q-17 12-14 20.5t23 8.5h429z" unicode="&#xe006;"/><glyph d="M407 800l131 353q7 19 17.5 19t17.5-19l129-353h421q21 0 24-8.5t-14-20.5l-342-249 130-401q7-20-.5-25.5t-24.5 6.5l-343 246-342-247q-17-12-24.5-6.5t-.5 25.5l130 400-347 251q-17 12-14 20.5t23 8.5h429zM477 700h-240l197-142-74-226 193 139 195-140-74 229 192 140h-234l-78 211z" unicode="&#xe007;"/><glyph d="M600 1200q124 0 212-88t88-212v-250q0-46-31-98t-69-52v-75q0-10 6-21.5t15-17.5l358-230q9-5 15-16.5t6-21.5v-93q0-10-7.5-17.5t-17.5-7.5h-1150q-10 0-17.5 7.5t-7.5 17.5v93q0 10 6 21.5t15 16.5l358 230q9 6 15 17.5t6 21.5v75q-38 0-69 52t-31 98v250q0 124 88 212t212 88z" unicode="&#xe008;"/><glyph d="M25 1100h1150q10 0 17.5-7.5t7.5-17.5v-1050q0-10-7.5-17.5t-17.5-7.5h-1150q-10 0-17.5 7.5t-7.5 17.5v1050q0 10 7.5 17.5t17.5 7.5zM100 1000v-100h100v100h-100zM875 1000h-550q-10 0-17.5-7.5t-7.5-17.5v-350q0-10 7.5-17.5t17.5-7.5h550q10 0 17.5 7.5t7.5 17.5v350q0 10-7.5 17.5t-17.5 7.5zM1000 1000v-100h100v100h-100zM100 800v-100h100v100h-100zM1000 800v-100h100v100h-100zM100 600v-100h100v100h-100zM1000 600v-100h100v100h-100zM875 500h-550q-10 0-17.5-7.5t-7.5-17.5v-350q0-10 7.5-17.5t17.5-7.5h550q10 0 17.5 7.5t7.5 17.5v350q0 10-7.5 17.5t-17.5 7.5zM100 400v-100h100v100h-100zM1000 400v-100h100v100h-100zM100 200v-100h100v100h-100zM1000 200v-100h100v100h-100z" unicode="&#xe009;"/><glyph d="M50 1100h400q21 0 35.5-14.5t14.5-35.5v-400q0-21-14.5-35.5t-35.5-14.5h-400q-21 0-35.5 14.5t-14.5 35.5v400q0 21 14.5 35.5t35.5 14.5zM650 1100h400q21 0 35.5-14.5t14.5-35.5v-400q0-21-14.5-35.5t-35.5-14.5h-400q-21 0-35.5 14.5t-14.5 35.5v400q0 21 14.5 35.5t35.5 14.5zM50 500h400q21 0 35.5-14.5t14.5-35.5v-400q0-21-14.5-35.5t-35.5-14.5h-400q-21 0-35.5 14.5t-14.5 35.5v400q0 21 14.5 35.5t35.5 14.5zM650 500h400q21 0 35.5-14.5t14.5-35.5v-400q0-21-14.5-35.5t-35.5-14.5h-400q-21 0-35.5 14.5t-14.5 35.5v400q0 21 14.5 35.5t35.5 14.5z" unicode="&#xe010;"/><glyph d="M50 1100h200q21 0 35.5-14.5t14.5-35.5v-200q0-21-14.5-35.5t-35.5-14.5h-200q-21 0-35.5 14.5t-14.5 35.5v200q0 21 14.5 35.5t35.5 14.5zM450 1100h200q21 0 35.5-14.5t14.5-35.5v-200q0-21-14.5-35.5t-35.5-14.5h-200q-21 0-35.5 14.5t-14.5 35.5v200q0 21 14.5 35.5t35.5 14.5zM850 1100h200q21 0 35.5-14.5t14.5-35.5v-200q0-21-14.5-35.5t-35.5-14.5h-200q-21 0-35.5 14.5t-14.5 35.5v200q0 21 14.5 35.5t35.5 14.5zM50 700h200q21 0 35.5-14.5t14.5-35.5v-200q0-21-14.5-35.5t-35.5-14.5h-200q-21 0-35.5 14.5t-14.5 35.5v200q0 21 14.5 35.5t35.5 14.5zM450 700h200q21 0 35.5-14.5t14.5-35.5v-200q0-21-14.5-35.5t-35.5-14.5h-200q-21 0-35.5 14.5t-14.5 35.5v200q0 21 14.5 35.5t35.5 14.5zM850 700h200q21 0 35.5-14.5t14.5-35.5v-200q0-21-14.5-35.5t-35.5-14.5h-200q-21 0-35.5 14.5t-14.5 35.5v200q0 21 14.5 35.5t35.5 14.5zM50 300h200q21 0 35.5-14.5t14.5-35.5v-200q0-21-14.5-35.5t-35.5-14.5h-200q-21 0-35.5 14.5t-14.5 35.5v200q0 21 14.5 35.5t35.5 14.5zM450 300h200q21 0 35.5-14.5t14.5-35.5v-200q0-21-14.5-35.5t-35.5-14.5h-200q-21 0-35.5 14.5t-14.5 35.5v200q0 21 14.5 35.5t35.5 14.5zM850 300h200q21 0 35.5-14.5t14.5-35.5v-200q0-21-14.5-35.5t-35.5-14.5h-200q-21 0-35.5 14.5t-14.5 35.5v200q0 21 14.5 35.5t35.5 14.5z" unicode="&#xe011;"/><glyph d="M50 1100h200q21 0 35.5-14.5t14.5-35.5v-200q0-21-14.5-35.5t-35.5-14.5h-200q-21 0-35.5 14.5t-14.5 35.5v200q0 21 14.5 35.5t35.5 14.5zM450 1100h700q21 0 35.5-14.5t14.5-35.5v-200q0-21-14.5-35.5t-35.5-14.5h-700q-21 0-35.5 14.5t-14.5 35.5v200q0 21 14.5 35.5t35.5 14.5zM50 700h200q21 0 35.5-14.5t14.5-35.5v-200q0-21-14.5-35.5t-35.5-14.5h-200q-21 0-35.5 14.5t-14.5 35.5v200q0 21 14.5 35.5t35.5 14.5zM450 700h700q21 0 35.5-14.5t14.5-35.5v-200q0-21-14.5-35.5t-35.5-14.5h-700q-21 0-35.5 14.5t-14.5 35.5v200q0 21 14.5 35.5t35.5 14.5zM50 300h200q21 0 35.5-14.5t14.5-35.5v-200q0-21-14.5-35.5t-35.5-14.5h-200q-21 0-35.5 14.5t-14.5 35.5v200q0 21 14.5 35.5t35.5 14.5zM450 300h700q21 0 35.5-14.5t14.5-35.5v-200q0-21-14.5-35.5t-35.5-14.5h-700q-21 0-35.5 14.5t-14.5 35.5v200q0 21 14.5 35.5t35.5 14.5z" unicode="&#xe012;"/><glyph d="M465 477l571 571q8 8 18 8t17-8l177-177q8-7 8-17t-8-18l-783-784q-7-8-17.5-8t-17.5 8l-384 384q-8 8-8 18t8 17l177 177q7 8 17 8t18-8l171-171q7-7 18-7t18 7z" unicode="&#xe013;"/><glyph d="M904 1083l178-179q8-8 8-18.5t-8-17.5l-267-268 267-268q8-7 8-17.5t-8-18.5l-178-178q-8-8-18.5-8t-17.5 8l-268 267-268-267q-7-8-17.5-8t-18.5 8l-178 178q-8 8-8 18.5t8 17.5l267 268-267 268q-8 7-8 17.5t8 18.5l178 178q8 8 18.5 8t17.5-8l268-267 268 268q7 7 17.5 7t18.5-7z" unicode="&#xe014;"/><glyph d="M507 1177q98 0 187.5-38.5t154.5-103.5 103.5-154.5 38.5-187.5q0-141-78-262l300-299q8-8 8-18.5t-8-18.5l-109-108q-7-8-17.5-8t-18.5 8l-300 299q-119-77-261-77-98 0-188 38.5t-154.5 103-103 154.5-38.5 188 38.5 187.5 103 154.5 154.5 103.5 188 38.5zM506.5 1023q-89.5 0-165.5-44t-120-120.5-44-166 44-165.5 120-120 165.5-44 166 44 120.5 120 44 165.5-44 166-120.5 120.5-166 44zM425 900h150q10 0 17.5-7.5t7.5-17.5v-75h75q10 0 17.5-7.5t7.5-17.5v-150q0-10-7.5-17.5t-17.5-7.5h-75v-75q0-10-7.5-17.5t-17.5-7.5h-150q-10 0-17.5 7.5t-7.5 17.5v75h-75q-10 0-17.5 7.5t-7.5 17.5v150q0 10 7.5 17.5t17.5 7.5h75v75q0 10 7.5 17.5t17.5 7.5z" unicode="&#xe015;"/><glyph d="M507 1177q98 0 187.5-38.5t154.5-103.5 103.5-154.5 38.5-187.5q0-141-78-262l300-299q8-8 8-18.5t-8-18.5l-109-108q-7-8-17.5-8t-18.5 8l-300 299q-119-77-261-77-98 0-188 38.5t-154.5 103-103 154.5-38.5 188 38.5 187.5 103 154.5 154.5 103.5 188 38.5zM506.5 1023q-89.5 0-165.5-44t-120-120.5-44-166 44-165.5 120-120 165.5-44 166 44 120.5 120 44 165.5-44 166-120.5 120.5-166 44zM325 800h350q10 0 17.5-7.5t7.5-17.5v-150q0-10-7.5-17.5t-17.5-7.5h-350q-10 0-17.5 7.5t-7.5 17.5v150q0 10 7.5 17.5t17.5 7.5z" unicode="&#xe016;"/><glyph d="M550 1200h100q21 0 35.5-14.5t14.5-35.5v-400q0-21-14.5-35.5t-35.5-14.5h-100q-21 0-35.5 14.5t-14.5 35.5v400q0 21 14.5 35.5t35.5 14.5zM800 975v166q167-62 272-209.5t105-331.5q0-117-45.5-224t-123-184.5-184.5-123-224-45.5-224 45.5-184.5 123-123 184.5-45.5 224q0 184 105 331.5t272 209.5v-166q-103-55-165-155t-62-220q0-116 57-214.5t155.5-155.5 214.5-57 214.5 57 155.5 155.5 57 214.5q0 120-62 220t-165 155z" unicode="&#xe017;"/><glyph d="M1025 1200h150q10 0 17.5-7.5t7.5-17.5v-1150q0-10-7.5-17.5t-17.5-7.5h-150q-10 0-17.5 7.5t-7.5 17.5v1150q0 10 7.5 17.5t17.5 7.5zM725 800h150q10 0 17.5-7.5t7.5-17.5v-750q0-10-7.5-17.5t-17.5-7.5h-150q-10 0-17.5 7.5t-7.5 17.5v750q0 10 7.5 17.5t17.5 7.5zM425 500h150q10 0 17.5-7.5t7.5-17.5v-450q0-10-7.5-17.5t-17.5-7.5h-150q-10 0-17.5 7.5t-7.5 17.5v450q0 10 7.5 17.5t17.5 7.5zM125 300h150q10 0 17.5-7.5t7.5-17.5v-250q0-10-7.5-17.5t-17.5-7.5h-150q-10 0-17.5 7.5t-7.5 17.5v250q0 10 7.5 17.5t17.5 7.5z" unicode="&#xe018;"/><glyph d="M600 1174q33 0 74-5l38-152 5-1q49-14 94-39l5-2 134 80q61-48 104-105l-80-134 3-5q25-44 39-93l1-6 152-38q5-43 5-73 0-34-5-74l-152-38-1-6q-15-49-39-93l-3-5 80-134q-48-61-104-105l-134 81-5-3q-44-25-94-39l-5-2-38-151q-43-5-74-5-33 0-74 5l-38 151-5 2q-49 14-94 39l-5 3-134-81q-60 48-104 105l80 134-3 5q-25 45-38 93l-2 6-151 38q-6 42-6 74 0 33 6 73l151 38 2 6q13 48 38 93l3 5-80 134q47 61 105 105l133-80 5 2q45 25 94 39l5 1 38 152q43 5 74 5zM600 815q-89 0-152-63t-63-151.5 63-151.5 152-63 152 63 63 151.5-63 151.5-152 63z" unicode="&#xe019;"/><glyph d="M500 1300h300q41 0 70.5-29.5t29.5-70.5v-100h275q10 0 17.5-7.5t7.5-17.5v-75h-1100v75q0 10 7.5 17.5t17.5 7.5h275v100q0 41 29.5 70.5t70.5 29.5zM500 1200v-100h300v100h-300zM1100 900v-800q0-41-29.5-70.5t-70.5-29.5h-700q-41 0-70.5 29.5t-29.5 70.5v800h900zM300 800v-700h100v700h-100zM500 800v-700h100v700h-100zM700 800v-700h100v700h-100zM900 800v-700h100v700h-100z" unicode="&#xe020;"/><glyph d="M18 618l620 608q8 7 18.5 7t17.5-7l608-608q8-8 5.5-13t-12.5-5h-175v-575q0-10-7.5-17.5t-17.5-7.5h-250q-10 0-17.5 7.5t-7.5 17.5v375h-300v-375q0-10-7.5-17.5t-17.5-7.5h-250q-10 0-17.5 7.5t-7.5 17.5v575h-175q-10 0-12.5 5t5.5 13z" unicode="&#xe021;"/><glyph d="M600 1200v-400q0-41 29.5-70.5t70.5-29.5h300v-650q0-21-14.5-35.5t-35.5-14.5h-800q-21 0-35.5 14.5t-14.5 35.5v1100q0 21 14.5 35.5t35.5 14.5h450zM1000 800h-250q-21 0-35.5 14.5t-14.5 35.5v250z" unicode="&#xe022;"/><glyph d="M600 1177q117 0 224-45.5t184.5-123 123-184.5 45.5-224-45.5-224-123-184.5-184.5-123-224-45.5-224 45.5-184.5 123-123 184.5-45.5 224 45.5 224 123 184.5 184.5 123 224 45.5zM600 1027q-116 0-214.5-57t-155.5-155.5-57-214.5 57-214.5 155.5-155.5 214.5-57 214.5 57 155.5 155.5 57 214.5-57 214.5-155.5 155.5-214.5 57zM525 900h50q10 0 17.5-7.5t7.5-17.5v-275h175q10 0 17.5-7.5t7.5-17.5v-50q0-10-7.5-17.5t-17.5-7.5h-250q-10 0-17.5 7.5t-7.5 17.5v350q0 10 7.5 17.5t17.5 7.5z" unicode="&#xe023;"/><glyph d="M1300 0h-538l-41 400h-242l-41-400h-538l431 1200h209l-21-300h162l-20 300h208zM515 800l-27-300h224l-27 300h-170z" unicode="&#xe024;"/><glyph d="M550 1200h200q21 0 35.5-14.5t14.5-35.5v-450h191q20 0 25.5-11.5t-7.5-27.5l-327-400q-13-16-32-16t-32 16l-327 400q-13 16-7.5 27.5t25.5 11.5h191v450q0 21 14.5 35.5t35.5 14.5zM1125 400h50q10 0 17.5-7.5t7.5-17.5v-350q0-10-7.5-17.5t-17.5-7.5h-1050q-10 0-17.5 7.5t-7.5 17.5v350q0 10 7.5 17.5t17.5 7.5h50q10 0 17.5-7.5t7.5-17.5v-175h900v175q0 10 7.5 17.5t17.5 7.5z" unicode="&#xe025;"/><glyph d="M600 1177q117 0 224-45.5t184.5-123 123-184.5 45.5-224-45.5-224-123-184.5-184.5-123-224-45.5-224 45.5-184.5 123-123 184.5-45.5 224 45.5 224 123 184.5 184.5 123 224 45.5zM600 1027q-116 0-214.5-57t-155.5-155.5-57-214.5 57-214.5 155.5-155.5 214.5-57 214.5 57 155.5 155.5 57 214.5-57 214.5-155.5 155.5-214.5 57zM525 900h150q10 0 17.5-7.5t7.5-17.5v-275h137q21 0 26-11.5t-8-27.5l-223-275q-13-16-32-16t-32 16l-223 275q-13 16-8 27.5t26 11.5h137v275q0 10 7.5 17.5t17.5 7.5z" unicode="&#xe026;"/><glyph d="M600 1177q117 0 224-45.5t184.5-123 123-184.5 45.5-224-45.5-224-123-184.5-184.5-123-224-45.5-224 45.5-184.5 123-123 184.5-45.5 224 45.5 224 123 184.5 184.5 123 224 45.5zM600 1027q-116 0-214.5-57t-155.5-155.5-57-214.5 57-214.5 155.5-155.5 214.5-57 214.5 57 155.5 155.5 57 214.5-57 214.5-155.5 155.5-214.5 57zM632 914l223-275q13-16 8-27.5t-26-11.5h-137v-275q0-10-7.5-17.5t-17.5-7.5h-150q-10 0-17.5 7.5t-7.5 17.5v275h-137q-21 0-26 11.5t8 27.5l223 275q13 16 32 16t32-16z" unicode="&#xe027;"/><glyph d="M225 1200h750q10 0 19.5-7t12.5-17l186-652q7-24 7-49v-425q0-12-4-27t-9-17q-12-6-37-6h-1100q-12 0-27 4t-17 8q-6 13-6 38l1 425q0 25 7 49l185 652q3 10 12.5 17t19.5 7zM878 1000h-556q-10 0-19-7t-11-18l-87-450q-2-11 4-18t16-7h150q10 0 19.5-7t11.5-17l38-152q2-10 11.5-17t19.5-7h250q10 0 19.5 7t11.5 17l38 152q2 10 11.5 17t19.5 7h150q10 0 16 7t4 18l-87 450q-2 11-11 18t-19 7z" unicode="&#xe028;"/><glyph d="M600 1177q117 0 224-45.5t184.5-123 123-184.5 45.5-224-45.5-224-123-184.5-184.5-123-224-45.5-224 45.5-184.5 123-123 184.5-45.5 224 45.5 224 123 184.5 184.5 123 224 45.5zM600 1027q-116 0-214.5-57t-155.5-155.5-57-214.5 57-214.5 155.5-155.5 214.5-57 214.5 57 155.5 155.5 57 214.5-57 214.5-155.5 155.5-214.5 57zM540 820l253-190q17-12 17-30t-17-30l-253-190q-16-12-28-6.5t-12 26.5v400q0 21 12 26.5t28-6.5z" unicode="&#xe029;"/><glyph d="M947 1060l135 135q7 7 12.5 5t5.5-13v-362q0-10-7.5-17.5t-17.5-7.5h-362q-11 0-13 5.5t5 12.5l133 133q-109 76-238 76-116 0-214.5-57t-155.5-155.5-57-214.5 57-214.5 155.5-155.5 214.5-57 214.5 57 155.5 155.5 57 214.5h150q0-117-45.5-224t-123-184.5-184.5-123-224-45.5-224 45.5-184.5 123-123 184.5-45.5 224 45.5 224 123 184.5 184.5 123 224 45.5q192 0 347-117z" unicode="&#xe030;"/><glyph d="M947 1060l135 135q7 7 12.5 5t5.5-13v-361q0-11-7.5-18.5t-18.5-7.5h-361q-11 0-13 5.5t5 12.5l134 134q-110 75-239 75-116 0-214.5-57t-155.5-155.5-57-214.5h-150q0 117 45.5 224t123 184.5 184.5 123 224 45.5q192 0 347-117zM1027 600h150q0-117-45.5-224t-123-184.5-184.5-123-224-45.5q-192 0-348 118l-134-134q-7-8-12.5-5.5t-5.5 12.5v360q0 11 7.5 18.5t18.5 7.5h360q10 0 12.5-5.5t-5.5-12.5l-133-133q110-76 240-76 116 0 214.5 57t155.5 155.5 57 214.5z" unicode="&#xe031;"/><glyph d="M125 1200h1050q10 0 17.5-7.5t7.5-17.5v-1150q0-10-7.5-17.5t-17.5-7.5h-1050q-10 0-17.5 7.5t-7.5 17.5v1150q0 10 7.5 17.5t17.5 7.5zM1075 1000h-850q-10 0-17.5-7.5t-7.5-17.5v-850q0-10 7.5-17.5t17.5-7.5h850q10 0 17.5 7.5t7.5 17.5v850q0 10-7.5 17.5t-17.5 7.5zM325 900h50q10 0 17.5-7.5t7.5-17.5v-50q0-10-7.5-17.5t-17.5-7.5h-50q-10 0-17.5 7.5t-7.5 17.5v50q0 10 7.5 17.5t17.5 7.5zM525 900h450q10 0 17.5-7.5t7.5-17.5v-50q0-10-7.5-17.5t-17.5-7.5h-450q-10 0-17.5 7.5t-7.5 17.5v50q0 10 7.5 17.5t17.5 7.5zM325 700h50q10 0 17.5-7.5t7.5-17.5v-50q0-10-7.5-17.5t-17.5-7.5h-50q-10 0-17.5 7.5t-7.5 17.5v50q0 10 7.5 17.5t17.5 7.5zM525 700h450q10 0 17.5-7.5t7.5-17.5v-50q0-10-7.5-17.5t-17.5-7.5h-450q-10 0-17.5 7.5t-7.5 17.5v50q0 10 7.5 17.5t17.5 7.5zM325 500h50q10 0 17.5-7.5t7.5-17.5v-50q0-10-7.5-17.5t-17.5-7.5h-50q-10 0-17.5 7.5t-7.5 17.5v50q0 10 7.5 17.5t17.5 7.5zM525 500h450q10 0 17.5-7.5t7.5-17.5v-50q0-10-7.5-17.5t-17.5-7.5h-450q-10 0-17.5 7.5t-7.5 17.5v50q0 10 7.5 17.5t17.5 7.5zM325 300h50q10 0 17.5-7.5t7.5-17.5v-50q0-10-7.5-17.5t-17.5-7.5h-50q-10 0-17.5 7.5t-7.5 17.5v50q0 10 7.5 17.5t17.5 7.5zM525 300h450q10 0 17.5-7.5t7.5-17.5v-50q0-10-7.5-17.5t-17.5-7.5h-450q-10 0-17.5 7.5t-7.5 17.5v50q0 10 7.5 17.5t17.5 7.5z" unicode="&#xe032;"/><glyph d="M900 800v200q0 83-58.5 141.5t-141.5 58.5h-300q-82 0-141-59t-59-141v-200h-100q-41 0-70.5-29.5t-29.5-70.5v-600q0-41 29.5-70.5t70.5-29.5h900q41 0 70.5 29.5t29.5 70.5v600q0 41-29.5 70.5t-70.5 29.5h-100zM400 800v150q0 21 15 35.5t35 14.5h200q20 0 35-14.5t15-35.5v-150h-300z" unicode="&#xe033;"/><glyph d="M125 1100h50q10 0 17.5-7.5t7.5-17.5v-1075h-100v1075q0 10 7.5 17.5t17.5 7.5zM1075 1052q4 0 9-2 16-6 16-23v-421q0-6-3-12-33-59-66.5-99t-65.5-58-56.5-24.5-52.5-6.5q-26 0-57.5 6.5t-52.5 13.5-60 21q-41 15-63 22.5t-57.5 15-65.5 7.5q-85 0-160-57-7-5-15-5-6 0-11 3-14 7-14 22v438q22 55 82 98.5t119 46.5q23 2 43 .5t43-7 32.5-8.5 38-13 32.5-11q41-14 63.5-21t57-14 63.5-7q103 0 183 87 7 8 18 8z" unicode="&#xe034;"/><glyph d="M600 1175q116 0 227-49.5t192.5-131 131-192.5 49.5-227v-300q0-10-7.5-17.5t-17.5-7.5h-50q-10 0-17.5 7.5t-7.5 17.5v300q0 127-70.5 231.5t-184.5 161.5-245 57-245-57-184.5-161.5-70.5-231.5v-300q0-10-7.5-17.5t-17.5-7.5h-50q-10 0-17.5 7.5t-7.5 17.5v300q0 116 49.5 227t131 192.5 192.5 131 227 49.5zM220 500h160q8 0 14-6t6-14v-460q0-8-6-14t-14-6h-160q-8 0-14 6t-6 14v460q0 8 6 14t14 6zM820 500h160q8 0 14-6t6-14v-460q0-8-6-14t-14-6h-160q-8 0-14 6t-6 14v460q0 8 6 14t14 6z" unicode="&#xe035;"/><glyph d="M321 814l258 172q9 6 15 2.5t6-13.5v-750q0-10-6-13.5t-15 2.5l-258 172q-21 14-46 14h-250q-10 0-17.5 7.5t-7.5 17.5v350q0 10 7.5 17.5t17.5 7.5h250q25 0 46 14zM900 668l120 120q7 7 17 7t17-7l34-34q7-7 7-17t-7-17l-120-120 120-120q7-7 7-17t-7-17l-34-34q-7-7-17-7t-17 7l-120 119-120-119q-7-7-17-7t-17 7l-34 34q-7 7-7 17t7 17l119 120-119 120q-7 7-7 17t7 17l34 34q7 8 17 8t17-8z" unicode="&#xe036;"/><glyph d="M321 814l258 172q9 6 15 2.5t6-13.5v-750q0-10-6-13.5t-15 2.5l-258 172q-21 14-46 14h-250q-10 0-17.5 7.5t-7.5 17.5v350q0 10 7.5 17.5t17.5 7.5h250q25 0 46 14zM766 900h4q10-1 16-10 96-129 96-290 0-154-90-281-6-9-17-10l-3-1q-9 0-16 6l-29 23q-7 7-8.5 16.5t4.5 17.5q72 103 72 229 0 132-78 238-6 8-4.5 18t9.5 17l29 22q7 5 15 5z" unicode="&#xe037;"/><glyph d="M967 1004h3q11-1 17-10 135-179 135-396 0-105-34-206.5t-98-185.5q-7-9-17-10h-3q-9 0-16 6l-42 34q-8 6-9 16t5 18q111 150 111 328 0 90-29.5 176t-84.5 157q-6 9-5 19t10 16l42 33q7 5 15 5zM321 814l258 172q9 6 15 2.5t6-13.5v-750q0-10-6-13.5t-15 2.5l-258 172q-21 14-46 14h-250q-10 0-17.5 7.5t-7.5 17.5v350q0 10 7.5 17.5t17.5 7.5h250q25 0 46 14zM766 900h4q10-1 16-10 96-129 96-290 0-154-90-281-6-9-17-10l-3-1q-9 0-16 6l-29 23q-7 7-8.5 16.5t4.5 17.5q72 103 72 229 0 132-78 238-6 8-4.5 18.5t9.5 16.5l29 22q7 5 15 5z" unicode="&#xe038;"/><glyph d="M500 900h100v-100h-100v-100h-400v-100h-100v600h500v-300zM1200 700h-200v-100h200v-200h-300v300h-200v300h-100v200h600v-500zM100 1100v-300h300v300h-300zM800 1100v-300h300v300h-300zM300 900h-100v100h100v-100zM1000 900h-100v100h100v-100zM300 500h200v-500h-500v500h200v100h100v-100zM800 300h200v-100h-100v-100h-200v100h-100v100h100v200h-200v100h300v-300zM100 400v-300h300v300h-300zM300 200h-100v100h100v-100zM1200 200h-100v100h100v-100zM700 0h-100v100h100v-100zM1200 0h-300v100h300v-100z" unicode="&#xe039;"/><glyph d="M100 200h-100v1000h100v-1000zM300 200h-100v1000h100v-1000zM700 200h-200v1000h200v-1000zM900 200h-100v1000h100v-1000zM1200 200h-200v1000h200v-1000zM400 0h-300v100h300v-100zM600 0h-100v91h100v-91zM800 0h-100v91h100v-91zM1100 0h-200v91h200v-91z" unicode="&#xe040;"/><glyph d="M500 1200l682-682q8-8 8-18t-8-18l-464-464q-8-8-18-8t-18 8l-682 682 1 475q0 10 7.5 17.5t17.5 7.5h474zM319.5 1024.5q-29.5 29.5-71 29.5t-71-29.5-29.5-71.5 29.5-71.5 71-29.5 71 29.5 29.5 71.5-29.5 71.5z" unicode="&#xe041;"/><glyph d="M500 1200l682-682q8-8 8-18t-8-18l-464-464q-8-8-18-8t-18 8l-682 682 1 475q0 10 7.5 17.5t17.5 7.5h474zM800 1200l682-682q8-8 8-18t-8-18l-464-464q-8-8-18-8t-18 8l-56 56 424 426-700 700h150zM319.5 1024.5q-29.5 29.5-71 29.5t-71-29.5-29.5-71.5 29.5-71.5 71-29.5 71 29.5 29.5 71.5-29.5 71.5z" unicode="&#xe042;"/><glyph d="M300 1200h825q75 0 75-75v-900q0-25-18-43l-64-64q-8-8-13-5.5t-5 12.5v950q0 10-7.5 17.5t-17.5 7.5h-700q-25 0-43-18l-64-64q-8-8-5.5-13t12.5-5h700q10 0 17.5-7.5t7.5-17.5v-950q0-10-7.5-17.5t-17.5-7.5h-850q-10 0-17.5 7.5t-7.5 17.5v975q0 25 18 43l139 139q18 18 43 18z" unicode="&#xe043;"/><glyph d="M250 1200h800q21 0 35.5-14.5t14.5-35.5v-1150l-450 444-450-445v1151q0 21 14.5 35.5t35.5 14.5z" unicode="&#xe044;"/><glyph d="M822 1200h-444q-11 0-19-7.5t-9-17.5l-78-301q-7-24 7-45l57-108q6-9 17.5-15t21.5-6h450q10 0 21.5 6t17.5 15l62 108q14 21 7 45l-83 301q-1 10-9 17.5t-19 7.5zM1175 800h-150q-10 0-21-6.5t-15-15.5l-78-156q-4-9-15-15.5t-21-6.5h-550q-10 0-21 6.5t-15 15.5l-78 156q-4 9-15 15.5t-21 6.5h-150q-10 0-17.5-7.5t-7.5-17.5v-650q0-10 7.5-17.5t17.5-7.5h150q10 0 17.5 7.5t7.5 17.5v150q0 10 7.5 17.5t17.5 7.5h750q10 0 17.5-7.5t7.5-17.5v-150q0-10 7.5-17.5t17.5-7.5h150q10 0 17.5 7.5t7.5 17.5v650q0 10-7.5 17.5t-17.5 7.5zM850 200h-500q-10 0-19.5-7t-11.5-17l-38-152q-2-10 3.5-17t15.5-7h600q10 0 15.5 7t3.5 17l-38 152q-2 10-11.5 17t-19.5 7z" unicode="&#xe045;"/><glyph d="M500 1100h200q56 0 102.5-20.5t72.5-50 44-59 25-50.5l6-20h150q41 0 70.5-29.5t29.5-70.5v-600q0-41-29.5-70.5t-70.5-29.5h-1000q-41 0-70.5 29.5t-29.5 70.5v600q0 41 29.5 70.5t70.5 29.5h150q2 8 6.5 21.5t24 48 45 61 72 48 102.5 21.5zM900 800v-100h100v100h-100zM600 730q-95 0-162.5-67.5t-67.5-162.5 67.5-162.5 162.5-67.5 162.5 67.5 67.5 162.5-67.5 162.5-162.5 67.5zM600 603q43 0 73-30t30-73-30-73-73-30-73 30-30 73 30 73 73 30z" unicode="&#xe046;"/><glyph d="M681 1199l385-998q20-50 60-92 18-19 36.5-29.5t27.5-11.5l10-2v-66h-417v66q53 0 75 43.5t5 88.5l-82 222h-391q-58-145-92-234-11-34-6.5-57t25.5-37 46-20 55-6v-66h-365v66q56 24 84 52 12 12 25 30.5t20 31.5l7 13 399 1006h93zM416 521h340l-162 457z" unicode="&#xe047;"/><glyph d="M753 641q5-1 14.5-4.5t36-15.5 50.5-26.5 53.5-40 50.5-54.5 35.5-70 14.5-87q0-67-27.5-125.5t-71.5-97.5-98.5-66.5-108.5-40.5-102-13h-500v89q41 7 70.5 32.5t29.5 65.5v827q0 24-.5 34t-3.5 24-8.5 19.5-17 13.5-28 12.5-42.5 11.5v71l471-1q57 0 115.5-20.5t108-57 80.5-94 31-124.5q0-51-15.5-96.5t-38-74.5-45-50.5-38.5-30.5zM400 700h139q78 0 130.5 48.5t52.5 122.5q0 41-8.5 70.5t-29.5 55.5-62.5 39.5-103.5 13.5h-118v-350zM400 200h216q80 0 121 50.5t41 130.5q0 90-62.5 154.5t-156.5 64.5h-159v-400z" unicode="&#xe048;"/><glyph d="M877 1200l2-57q-83-19-116-45.5t-40-66.5l-132-839q-9-49 13-69t96-26v-97h-500v97q186 16 200 98l173 832q3 17 3 30t-1.5 22.5-9 17.5-13.5 12.5-21.5 10-26 8.5-33.5 10q-13 3-19 5v57h425z" unicode="&#xe049;"/><glyph d="M1300 900h-50q0 21-4 37t-9.5 26.5-18 17.5-22 11-28.5 5.5-31 2-37 .5h-200v-850q0-22 25-34.5t50-13.5l25-2v-100h-400v100q4 0 11 .5t24 3 30 7 24 15 11 24.5v850h-200q-25 0-37-.5t-31-2-28.5-5.5-22-11-18-17.5-9.5-26.5-4-37h-50v300h1000v-300zM175 1000h-75v-800h75l-125-167-125 167h75v800h-75l125 167z" unicode="&#xe050;"/><glyph d="M1100 900h-50q0 21-4 37t-9.5 26.5-18 17.5-22 11-28.5 5.5-31 2-37 .5h-200v-650q0-22 25-34.5t50-13.5l25-2v-100h-400v100q4 0 11 .5t24 3 30 7 24 15 11 24.5v650h-200q-25 0-37-.5t-31-2-28.5-5.5-22-11-18-17.5-9.5-26.5-4-37h-50v300h1000v-300zM1167 50l-167-125v75h-800v-75l-167 125 167 125v-75h800v75z" unicode="&#xe051;"/><glyph d="M50 1100h600q21 0 35.5-14.5t14.5-35.5v-100q0-21-14.5-35.5t-35.5-14.5h-600q-21 0-35.5 14.5t-14.5 35.5v100q0 21 14.5 35.5t35.5 14.5zM50 800h1000q21 0 35.5-14.5t14.5-35.5v-100q0-21-14.5-35.5t-35.5-14.5h-1000q-21 0-35.5 14.5t-14.5 35.5v100q0 21 14.5 35.5t35.5 14.5zM50 500h800q21 0 35.5-14.5t14.5-35.5v-100q0-21-14.5-35.5t-35.5-14.5h-800q-21 0-35.5 14.5t-14.5 35.5v100q0 21 14.5 35.5t35.5 14.5zM50 200h1100q21 0 35.5-14.5t14.5-35.5v-100q0-21-14.5-35.5t-35.5-14.5h-1100q-21 0-35.5 14.5t-14.5 35.5v100q0 21 14.5 35.5t35.5 14.5z" unicode="&#xe052;"/><glyph d="M250 1100h700q21 0 35.5-14.5t14.5-35.5v-100q0-21-14.5-35.5t-35.5-14.5h-700q-21 0-35.5 14.5t-14.5 35.5v100q0 21 14.5 35.5t35.5 14.5zM50 800h1100q21 0 35.5-14.5t14.5-35.5v-100q0-21-14.5-35.5t-35.5-14.5h-1100q-21 0-35.5 14.5t-14.5 35.5v100q0 21 14.5 35.5t35.5 14.5zM250 500h700q21 0 35.5-14.5t14.5-35.5v-100q0-21-14.5-35.5t-35.5-14.5h-700q-21 0-35.5 14.5t-14.5 35.5v100q0 21 14.5 35.5t35.5 14.5zM50 200h1100q21 0 35.5-14.5t14.5-35.5v-100q0-21-14.5-35.5t-35.5-14.5h-1100q-21 0-35.5 14.5t-14.5 35.5v100q0 21 14.5 35.5t35.5 14.5z" unicode="&#xe053;"/><glyph d="M500 950v100q0 21 14.5 35.5t35.5 14.5h600q21 0 35.5-14.5t14.5-35.5v-100q0-21-14.5-35.5t-35.5-14.5h-600q-21 0-35.5 14.5t-14.5 35.5zM100 650v100q0 21 14.5 35.5t35.5 14.5h1000q21 0 35.5-14.5t14.5-35.5v-100q0-21-14.5-35.5t-35.5-14.5h-1000q-21 0-35.5 14.5t-14.5 35.5zM300 350v100q0 21 14.5 35.5t35.5 14.5h800q21 0 35.5-14.5t14.5-35.5v-100q0-21-14.5-35.5t-35.5-14.5h-800q-21 0-35.5 14.5t-14.5 35.5zM0 50v100q0 21 14.5 35.5t35.5 14.5h1100q21 0 35.5-14.5t14.5-35.5v-100q0-21-14.5-35.5t-35.5-14.5h-1100q-21 0-35.5 14.5t-14.5 35.5z" unicode="&#xe054;"/><glyph d="M50 1100h1100q21 0 35.5-14.5t14.5-35.5v-100q0-21-14.5-35.5t-35.5-14.5h-1100q-21 0-35.5 14.5t-14.5 35.5v100q0 21 14.5 35.5t35.5 14.5zM50 800h1100q21 0 35.5-14.5t14.5-35.5v-100q0-21-14.5-35.5t-35.5-14.5h-1100q-21 0-35.5 14.5t-14.5 35.5v100q0 21 14.5 35.5t35.5 14.5zM50 500h1100q21 0 35.5-14.5t14.5-35.5v-100q0-21-14.5-35.5t-35.5-14.5h-1100q-21 0-35.5 14.5t-14.5 35.5v100q0 21 14.5 35.5t35.5 14.5zM50 200h1100q21 0 35.5-14.5t14.5-35.5v-100q0-21-14.5-35.5t-35.5-14.5h-1100q-21 0-35.5 14.5t-14.5 35.5v100q0 21 14.5 35.5t35.5 14.5z" unicode="&#xe055;"/><glyph d="M50 1100h100q21 0 35.5-14.5t14.5-35.5v-100q0-21-14.5-35.5t-35.5-14.5h-100q-21 0-35.5 14.5t-14.5 35.5v100q0 21 14.5 35.5t35.5 14.5zM350 1100h800q21 0 35.5-14.5t14.5-35.5v-100q0-21-14.5-35.5t-35.5-14.5h-800q-21 0-35.5 14.5t-14.5 35.5v100q0 21 14.5 35.5t35.5 14.5zM50 800h100q21 0 35.5-14.5t14.5-35.5v-100q0-21-14.5-35.5t-35.5-14.5h-100q-21 0-35.5 14.5t-14.5 35.5v100q0 21 14.5 35.5t35.5 14.5zM350 800h800q21 0 35.5-14.5t14.5-35.5v-100q0-21-14.5-35.5t-35.5-14.5h-800q-21 0-35.5 14.5t-14.5 35.5v100q0 21 14.5 35.5t35.5 14.5zM50 500h100q21 0 35.5-14.5t14.5-35.5v-100q0-21-14.5-35.5t-35.5-14.5h-100q-21 0-35.5 14.5t-14.5 35.5v100q0 21 14.5 35.5t35.5 14.5zM350 500h800q21 0 35.5-14.5t14.5-35.5v-100q0-21-14.5-35.5t-35.5-14.5h-800q-21 0-35.5 14.5t-14.5 35.5v100q0 21 14.5 35.5t35.5 14.5zM50 200h100q21 0 35.5-14.5t14.5-35.5v-100q0-21-14.5-35.5t-35.5-14.5h-100q-21 0-35.5 14.5t-14.5 35.5v100q0 21 14.5 35.5t35.5 14.5zM350 200h800q21 0 35.5-14.5t14.5-35.5v-100q0-21-14.5-35.5t-35.5-14.5h-800q-21 0-35.5 14.5t-14.5 35.5v100q0 21 14.5 35.5t35.5 14.5z" unicode="&#xe056;"/><glyph d="M400 0h-100v1100h100v-1100zM550 1100h100q21 0 35.5-14.5t14.5-35.5v-100q0-21-14.5-35.5t-35.5-14.5h-100q-21 0-35.5 14.5t-14.5 35.5v100q0 21 14.5 35.5t35.5 14.5zM550 800h500q21 0 35.5-14.5t14.5-35.5v-100q0-21-14.5-35.5t-35.5-14.5h-500q-21 0-35.5 14.5t-14.5 35.5v100q0 21 14.5 35.5t35.5 14.5zM267 550l-167-125v75h-200v100h200v75zM550 500h300q21 0 35.5-14.5t14.5-35.5v-100q0-21-14.5-35.5t-35.5-14.5h-300q-21 0-35.5 14.5t-14.5 35.5v100q0 21 14.5 35.5t35.5 14.5zM550 200h600q21 0 35.5-14.5t14.5-35.5v-100q0-21-14.5-35.5t-35.5-14.5h-600q-21 0-35.5 14.5t-14.5 35.5v100q0 21 14.5 35.5t35.5 14.5z" unicode="&#xe057;"/><glyph d="M50 1100h100q21 0 35.5-14.5t14.5-35.5v-100q0-21-14.5-35.5t-35.5-14.5h-100q-21 0-35.5 14.5t-14.5 35.5v100q0 21 14.5 35.5t35.5 14.5zM900 0h-100v1100h100v-1100zM50 800h500q21 0 35.5-14.5t14.5-35.5v-100q0-21-14.5-35.5t-35.5-14.5h-500q-21 0-35.5 14.5t-14.5 35.5v100q0 21 14.5 35.5t35.5 14.5zM1100 600h200v-100h-200v-75l-167 125 167 125v-75zM50 500h300q21 0 35.5-14.5t14.5-35.5v-100q0-21-14.5-35.5t-35.5-14.5h-300q-21 0-35.5 14.5t-14.5 35.5v100q0 21 14.5 35.5t35.5 14.5zM50 200h600q21 0 35.5-14.5t14.5-35.5v-100q0-21-14.5-35.5t-35.5-14.5h-600q-21 0-35.5 14.5t-14.5 35.5v100q0 21 14.5 35.5t35.5 14.5z" unicode="&#xe058;"/><glyph d="M75 1000h750q31 0 53-22t22-53v-650q0-31-22-53t-53-22h-750q-31 0-53 22t-22 53v650q0 31 22 53t53 22zM1200 300l-300 300 300 300v-600z" unicode="&#xe059;"/><glyph d="M44 1100h1112q18 0 31-13t13-31v-1012q0-18-13-31t-31-13h-1112q-18 0-31 13t-13 31v1012q0 18 13 31t31 13zM100 1000v-737l247 182 298-131-74 156 293 318 236-288v500h-1000zM342 884q56 0 95-39t39-94.5-39-95-95-39.5-95 39.5-39 95 39 94.5 95 39z" unicode="&#xe060;"/><glyph d="M648 1169q117 0 216-60t156.5-161 57.5-218q0-115-70-258-69-109-158-225.5t-143-179.5l-54-62q-9 8-25.5 24.5t-63.5 67.5-91 103-98.5 128-95.5 148q-60 132-60 249 0 88 34 169.5t91.5 142 137 96.5 166.5 36zM652.5 974q-91.5 0-156.5-65t-65-157 65-156.5 156.5-64.5 156.5 64.5 65 156.5-65 157-156.5 65z" unicode="&#xe062;"/><glyph d="M600 1177q117 0 224-45.5t184.5-123 123-184.5 45.5-224-45.5-224-123-184.5-184.5-123-224-45.5-224 45.5-184.5 123-123 184.5-45.5 224 45.5 224 123 184.5 184.5 123 224 45.5zM600 173v854q-116 0-214.5-57t-155.5-155.5-57-214.5 57-214.5 155.5-155.5 214.5-57z" unicode="&#xe063;"/><glyph d="M554 1295q21-72 57.5-143.5t76-130 83-118 82.5-117 70-116 49.5-126 18.5-136.5q0-71-25.5-135t-68.5-111-99-82-118.5-54-125.5-23q-84 5-161.5 34t-139.5 78.5-99 125-37 164.5q0 69 18 136.5t49.5 126.5 69.5 116.5 81.5 117.5 83.5 119 76.5 131 58.5 143zM344 710q-23-33-43.5-70.5t-40.5-102.5-17-123q1-37 14.5-69.5t30-52 41-37 38.5-24.5 33-15q21-7 32-1t13 22l6 34q2 10-2.5 22t-13.5 19q-5 4-14 12t-29.5 40.5-32.5 73.5q-26 89 6 271 2 11-6 11-8 1-15-10z" unicode="&#xe064;"/><glyph d="M1000 1013l108 115q2 1 5 2t13 2 20.5-1 25-9.5 28.5-21.5q22-22 27-43t0-32l-6-10-108-115zM350 1100h400q50 0 105-13l-187-187h-368q-41 0-70.5-29.5t-29.5-70.5v-500q0-41 29.5-70.5t70.5-29.5h500q41 0 70.5 29.5t29.5 70.5v182l200 200v-332q0-165-93.5-257.5t-256.5-92.5h-400q-165 0-257.5 92.5t-92.5 257.5v400q0 165 92.5 257.5t257.5 92.5zM1009 803l-362-362-161-50 55 170 355 355z" unicode="&#xe065;"/><glyph d="M350 1100h361q-164-146-216-200h-195q-41 0-70.5-29.5t-29.5-70.5v-500q0-41 29.5-70.5t70.5-29.5h500q41 0 70.5 29.5t29.5 70.5l200 153v-103q0-165-92.5-257.5t-257.5-92.5h-400q-165 0-257.5 92.5t-92.5 257.5v400q0 165 92.5 257.5t257.5 92.5zM824 1073l339-301q8-7 8-17.5t-8-17.5l-340-306q-7-6-12.5-4t-6.5 11v203q-26 1-54.5 0t-78.5-7.5-92-17.5-86-35-70-57q10 59 33 108t51.5 81.5 65 58.5 68.5 40.5 67 24.5 56 13.5 40 4.5v210q1 10 6.5 12.5t13.5-4.5z" unicode="&#xe066;"/><glyph d="M350 1100h350q60 0 127-23l-178-177h-349q-41 0-70.5-29.5t-29.5-70.5v-500q0-41 29.5-70.5t70.5-29.5h500q41 0 70.5 29.5t29.5 70.5v69l200 200v-219q0-165-92.5-257.5t-257.5-92.5h-400q-165 0-257.5 92.5t-92.5 257.5v400q0 165 92.5 257.5t257.5 92.5zM643 639l395 395q7 7 17.5 7t17.5-7l101-101q7-7 7-17.5t-7-17.5l-531-532q-7-7-17.5-7t-17.5 7l-248 248q-7 7-7 17.5t7 17.5l101 101q7 7 17.5 7t17.5-7l111-111q8-7 18-7t18 7z" unicode="&#xe067;"/><glyph d="M318 918l264 264q8 8 18 8t18-8l260-264q7-8 4.5-13t-12.5-5h-170v-200h200v173q0 10 5 12t13-5l264-260q8-7 8-17.5t-8-17.5l-264-265q-8-7-13-5t-5 12v173h-200v-200h170q10 0 12.5-5t-4.5-13l-260-264q-8-8-18-8t-18 8l-264 264q-8 8-5.5 13t12.5 5h175v200h-200v-173q0-10-5-12t-13 5l-264 265q-8 7-8 17.5t8 17.5l264 260q8 7 13 5t5-12v-173h200v200h-175q-10 0-12.5 5t5.5 13z" unicode="&#xe068;"/><glyph d="M250 1100h100q21 0 35.5-14.5t14.5-35.5v-438l464 453q15 14 25.5 10t10.5-25v-1000q0-21-10.5-25t-25.5 10l-464 453v-438q0-21-14.5-35.5t-35.5-14.5h-100q-21 0-35.5 14.5t-14.5 35.5v1000q0 21 14.5 35.5t35.5 14.5z" unicode="&#xe069;"/><glyph d="M50 1100h100q21 0 35.5-14.5t14.5-35.5v-438l464 453q15 14 25.5 10t10.5-25v-438l464 453q15 14 25.5 10t10.5-25v-1000q0-21-10.5-25t-25.5 10l-464 453v-438q0-21-10.5-25t-25.5 10l-464 453v-438q0-21-14.5-35.5t-35.5-14.5h-100q-21 0-35.5 14.5t-14.5 35.5v1000q0 21 14.5 35.5t35.5 14.5z" unicode="&#xe070;"/><glyph d="M1200 1050v-1000q0-21-10.5-25t-25.5 10l-464 453v-438q0-21-10.5-25t-25.5 10l-492 480q-15 14-15 35t15 35l492 480q15 14 25.5 10t10.5-25v-438l464 453q15 14 25.5 10t10.5-25z" unicode="&#xe071;"/><glyph d="M243 1074l814-498q18-11 18-26t-18-26l-814-498q-18-11-30.5-4t-12.5 28v1000q0 21 12.5 28t30.5-4z" unicode="&#xe072;"/><glyph d="M250 1000h200q21 0 35.5-14.5t14.5-35.5v-800q0-21-14.5-35.5t-35.5-14.5h-200q-21 0-35.5 14.5t-14.5 35.5v800q0 21 14.5 35.5t35.5 14.5zM650 1000h200q21 0 35.5-14.5t14.5-35.5v-800q0-21-14.5-35.5t-35.5-14.5h-200q-21 0-35.5 14.5t-14.5 35.5v800q0 21 14.5 35.5t35.5 14.5z" unicode="&#xe073;"/><glyph d="M1100 950v-800q0-21-14.5-35.5t-35.5-14.5h-800q-21 0-35.5 14.5t-14.5 35.5v800q0 21 14.5 35.5t35.5 14.5h800q21 0 35.5-14.5t14.5-35.5z" unicode="&#xe074;"/><glyph d="M500 612v438q0 21 10.5 25t25.5-10l492-480q15-14 15-35t-15-35l-492-480q-15-14-25.5-10t-10.5 25v438l-464-453q-15-14-25.5-10t-10.5 25v1000q0 21 10.5 25t25.5-10z" unicode="&#xe075;"/><glyph d="M1048 1102l100 1q20 0 35-14.5t15-35.5l5-1000q0-21-14.5-35.5t-35.5-14.5l-100-1q-21 0-35.5 14.5t-14.5 35.5l-2 437-463-454q-14-15-24.5-10.5t-10.5 25.5l-2 437-462-455q-15-14-25.5-9.5t-10.5 24.5l-5 1000q0 21 10.5 25.5t25.5-10.5l466-450-2 438q0 20 10.5 24.5t25.5-9.5l466-451-2 438q0 21 14.5 35.5t35.5 14.5z" unicode="&#xe076;"/><glyph d="M850 1100h100q21 0 35.5-14.5t14.5-35.5v-1000q0-21-14.5-35.5t-35.5-14.5h-100q-21 0-35.5 14.5t-14.5 35.5v438l-464-453q-15-14-25.5-10t-10.5 25v1000q0 21 10.5 25t25.5-10l464-453v438q0 21 14.5 35.5t35.5 14.5z" unicode="&#xe077;"/><glyph d="M686 1081l501-540q15-15 10.5-26t-26.5-11h-1042q-22 0-26.5 11t10.5 26l501 540q15 15 36 15t36-15zM150 400h1000q21 0 35.5-14.5t14.5-35.5v-100q0-21-14.5-35.5t-35.5-14.5h-1000q-21 0-35.5 14.5t-14.5 35.5v100q0 21 14.5 35.5t35.5 14.5z" unicode="&#xe078;"/><glyph d="M885 900l-352-353 352-353-197-198-552 552 552 550z" unicode="&#xe079;"/><glyph d="M1064 547l-551-551-198 198 353 353-353 353 198 198z" unicode="&#xe080;"/><glyph d="M600 1177q117 0 224-45.5t184.5-123 123-184.5 45.5-224-45.5-224-123-184.5-184.5-123-224-45.5-224 45.5-184.5 123-123 184.5-45.5 224 45.5 224 123 184.5 184.5 123 224 45.5zM650 900h-100q-21 0-35.5-14.5t-14.5-35.5v-150h-150q-21 0-35.5-14.5t-14.5-35.5v-100q0-21 14.5-35.5t35.5-14.5h150v-150q0-21 14.5-35.5t35.5-14.5h100q21 0 35.5 14.5t14.5 35.5v150h150q21 0 35.5 14.5t14.5 35.5v100q0 21-14.5 35.5t-35.5 14.5h-150v150q0 21-14.5 35.5t-35.5 14.5z" unicode="&#xe081;"/><glyph d="M600 1177q117 0 224-45.5t184.5-123 123-184.5 45.5-224-45.5-224-123-184.5-184.5-123-224-45.5-224 45.5-184.5 123-123 184.5-45.5 224 45.5 224 123 184.5 184.5 123 224 45.5zM850 700h-500q-21 0-35.5-14.5t-14.5-35.5v-100q0-21 14.5-35.5t35.5-14.5h500q21 0 35.5 14.5t14.5 35.5v100q0 21-14.5 35.5t-35.5 14.5z" unicode="&#xe082;"/><glyph d="M600 1177q117 0 224-45.5t184.5-123 123-184.5 45.5-224-45.5-224-123-184.5-184.5-123-224-45.5-224 45.5-184.5 123-123 184.5-45.5 224 45.5 224 123 184.5 184.5 123 224 45.5zM741.5 913q-12.5 0-21.5-9l-120-120-120 120q-9 9-21.5 9t-21.5-9l-141-141q-9-9-9-21.5t9-21.5l120-120-120-120q-9-9-9-21.5t9-21.5l141-141q9-9 21.5-9t21.5 9l120 120 120-120q9-9 21.5-9t21.5 9l141 141q9 9 9 21.5t-9 21.5l-120 120 120 120q9 9 9 21.5t-9 21.5l-141 141q-9 9-21.5 9z" unicode="&#xe083;"/><glyph d="M600 1177q117 0 224-45.5t184.5-123 123-184.5 45.5-224-45.5-224-123-184.5-184.5-123-224-45.5-224 45.5-184.5 123-123 184.5-45.5 224 45.5 224 123 184.5 184.5 123 224 45.5zM546 623l-84 85q-7 7-17.5 7t-18.5-7l-139-139q-7-8-7-18t7-18l242-241q7-8 17.5-8t17.5 8l375 375q7 7 7 17.5t-7 18.5l-139 139q-7 7-17.5 7t-17.5-7z" unicode="&#xe084;"/><glyph d="M600 1177q117 0 224-45.5t184.5-123 123-184.5 45.5-224-45.5-224-123-184.5-184.5-123-224-45.5-224 45.5-184.5 123-123 184.5-45.5 224 45.5 224 123 184.5 184.5 123 224 45.5zM588 941q-29 0-59-5.5t-63-20.5-58-38.5-41.5-63-16.5-89.5q0-25 20-25h131q30-5 35 11 6 20 20.5 28t45.5 8q20 0 31.5-10.5t11.5-28.5q0-23-7-34t-26-18q-1 0-13.5-4t-19.5-7.5-20-10.5-22-17-18.5-24-15.5-35-8-46q-1-8 5.5-16.5t20.5-8.5h173q7 0 22 8t35 28 37.5 48 29.5 74 12 100q0 47-17 83t-42.5 57-59.5 34.5-64 18-59 4.5zM675 400h-150q-10 0-17.5-7.5t-7.5-17.5v-150q0-10 7.5-17.5t17.5-7.5h150q10 0 17.5 7.5t7.5 17.5v150q0 10-7.5 17.5t-17.5 7.5z" unicode="&#xe085;"/><glyph d="M600 1177q117 0 224-45.5t184.5-123 123-184.5 45.5-224-45.5-224-123-184.5-184.5-123-224-45.5-224 45.5-184.5 123-123 184.5-45.5 224 45.5 224 123 184.5 184.5 123 224 45.5zM675 1000h-150q-10 0-17.5-7.5t-7.5-17.5v-150q0-10 7.5-17.5t17.5-7.5h150q10 0 17.5 7.5t7.5 17.5v150q0 10-7.5 17.5t-17.5 7.5zM675 700h-250q-10 0-17.5-7.5t-7.5-17.5v-50q0-10 7.5-17.5t17.5-7.5h75v-200h-75q-10 0-17.5-7.5t-7.5-17.5v-50q0-10 7.5-17.5t17.5-7.5h350q10 0 17.5 7.5t7.5 17.5v50q0 10-7.5 17.5t-17.5 7.5h-75v275q0 10-7.5 17.5t-17.5 7.5z" unicode="&#xe086;"/><glyph d="M525 1200h150q10 0 17.5-7.5t7.5-17.5v-194q103-27 178.5-102.5t102.5-178.5h194q10 0 17.5-7.5t7.5-17.5v-150q0-10-7.5-17.5t-17.5-7.5h-194q-27-103-102.5-178.5t-178.5-102.5v-194q0-10-7.5-17.5t-17.5-7.5h-150q-10 0-17.5 7.5t-7.5 17.5v194q-103 27-178.5 102.5t-102.5 178.5h-194q-10 0-17.5 7.5t-7.5 17.5v150q0 10 7.5 17.5t17.5 7.5h194q27 103 102.5 178.5t178.5 102.5v194q0 10 7.5 17.5t17.5 7.5zM700 893v-168q0-10-7.5-17.5t-17.5-7.5h-150q-10 0-17.5 7.5t-7.5 17.5v168q-68-23-119-74t-74-119h168q10 0 17.5-7.5t7.5-17.5v-150q0-10-7.5-17.5t-17.5-7.5h-168q23-68 74-119t119-74v168q0 10 7.5 17.5t17.5 7.5h150q10 0 17.5-7.5t7.5-17.5v-168q68 23 119 74t74 119h-168q-10 0-17.5 7.5t-7.5 17.5v150q0 10 7.5 17.5t17.5 7.5h168q-23 68-74 119t-119 74z" unicode="&#xe087;"/><glyph d="M600 1177q117 0 224-45.5t184.5-123 123-184.5 45.5-224-45.5-224-123-184.5-184.5-123-224-45.5-224 45.5-184.5 123-123 184.5-45.5 224 45.5 224 123 184.5 184.5 123 224 45.5zM600 1027q-116 0-214.5-57t-155.5-155.5-57-214.5 57-214.5 155.5-155.5 214.5-57 214.5 57 155.5 155.5 57 214.5-57 214.5-155.5 155.5-214.5 57zM759 823l64-64q7-7 7-17.5t-7-17.5l-124-124 124-124q7-7 7-17.5t-7-17.5l-64-64q-7-7-17.5-7t-17.5 7l-124 124-124-124q-7-7-17.5-7t-17.5 7l-64 64q-7 7-7 17.5t7 17.5l124 124-124 124q-7 7-7 17.5t7 17.5l64 64q7 7 17.5 7t17.5-7l124-124 124 124q7 7 17.5 7t17.5-7z" unicode="&#xe088;"/><glyph d="M600 1177q117 0 224-45.5t184.5-123 123-184.5 45.5-224-45.5-224-123-184.5-184.5-123-224-45.5-224 45.5-184.5 123-123 184.5-45.5 224 45.5 224 123 184.5 184.5 123 224 45.5zM600 1027q-116 0-214.5-57t-155.5-155.5-57-214.5 57-214.5 155.5-155.5 214.5-57 214.5 57 155.5 155.5 57 214.5-57 214.5-155.5 155.5-214.5 57zM782 788l106-106q7-7 7-17.5t-7-17.5l-320-321q-8-7-18-7t-18 7l-202 203q-8 7-8 17.5t8 17.5l106 106q7 8 17.5 8t17.5-8l79-79 197 197q7 7 17.5 7t17.5-7z" unicode="&#xe089;"/><glyph d="M600 1177q117 0 224-45.5t184.5-123 123-184.5 45.5-224-45.5-224-123-184.5-184.5-123-224-45.5-224 45.5-184.5 123-123 184.5-45.5 224 45.5 224 123 184.5 184.5 123 224 45.5zM600 1027q-116 0-214.5-57t-155.5-155.5-57-214.5q0-120 65-225l587 587q-105 65-225 65zM965 819l-584-584q104-62 219-62 116 0 214.5 57t155.5 155.5 57 214.5q0 115-62 219z" unicode="&#xe090;"/><glyph d="M39 582l522 427q16 13 27.5 8t11.5-26v-291h550q21 0 35.5-14.5t14.5-35.5v-200q0-21-14.5-35.5t-35.5-14.5h-550v-291q0-21-11.5-26t-27.5 8l-522 427q-16 13-16 32t16 32z" unicode="&#xe091;"/><glyph d="M639 1009l522-427q16-13 16-32t-16-32l-522-427q-16-13-27.5-8t-11.5 26v291h-550q-21 0-35.5 14.5t-14.5 35.5v200q0 21 14.5 35.5t35.5 14.5h550v291q0 21 11.5 26t27.5-8z" unicode="&#xe092;"/><glyph d="M682 1161l427-522q13-16 8-27.5t-26-11.5h-291v-550q0-21-14.5-35.5t-35.5-14.5h-200q-21 0-35.5 14.5t-14.5 35.5v550h-291q-21 0-26 11.5t8 27.5l427 522q13 16 32 16t32-16z" unicode="&#xe093;"/><glyph d="M550 1200h200q21 0 35.5-14.5t14.5-35.5v-550h291q21 0 26-11.5t-8-27.5l-427-522q-13-16-32-16t-32 16l-427 522q-13 16-8 27.5t26 11.5h291v550q0 21 14.5 35.5t35.5 14.5z" unicode="&#xe094;"/><glyph d="M639 1109l522-427q16-13 16-32t-16-32l-522-427q-16-13-27.5-8t-11.5 26v291q-94-2-182-20t-170.5-52-147-92.5-100.5-135.5q5 105 27 193.5t67.5 167 113 135 167 91.5 225.5 42v262q0 21 11.5 26t27.5-8z" unicode="&#xe095;"/><glyph d="M850 1200h300q21 0 35.5-14.5t14.5-35.5v-300q0-21-10.5-25t-24.5 10l-94 94-249-249q-8-7-18-7t-18 7l-106 106q-7 8-7 18t7 18l249 249-94 94q-14 14-10 24.5t25 10.5zM350 0h-300q-21 0-35.5 14.5t-14.5 35.5v300q0 21 10.5 25t24.5-10l94-94 249 249q8 7 18 7t18-7l106-106q7-8 7-18t-7-18l-249-249 94-94q14-14 10-24.5t-25-10.5z" unicode="&#xe096;"/><glyph d="M1014 1120l106-106q7-8 7-18t-7-18l-249-249 94-94q14-14 10-24.5t-25-10.5h-300q-21 0-35.5 14.5t-14.5 35.5v300q0 21 10.5 25t24.5-10l94-94 249 249q8 7 18 7t18-7zM250 600h300q21 0 35.5-14.5t14.5-35.5v-300q0-21-10.5-25t-24.5 10l-94 94-249-249q-8-7-18-7t-18 7l-106 106q-7 8-7 18t7 18l249 249-94 94q-14 14-10 24.5t25 10.5z" unicode="&#xe097;"/><glyph d="M600 1177q117 0 224-45.5t184.5-123 123-184.5 45.5-224-45.5-224-123-184.5-184.5-123-224-45.5-224 45.5-184.5 123-123 184.5-45.5 224 45.5 224 123 184.5 184.5 123 224 45.5zM704 900h-208q-20 0-32-14.5t-8-34.5l58-302q4-20 21.5-34.5t37.5-14.5h54q20 0 37.5 14.5t21.5 34.5l58 302q4 20-8 34.5t-32 14.5zM675 400h-150q-10 0-17.5-7.5t-7.5-17.5v-150q0-10 7.5-17.5t17.5-7.5h150q10 0 17.5 7.5t7.5 17.5v150q0 10-7.5 17.5t-17.5 7.5z" unicode="&#xe101;"/><glyph d="M260 1200q9 0 19-2t15-4l5-2q22-10 44-23l196-118q21-13 36-24 29-21 37-12 11 13 49 35l196 118q22 13 45 23 17 7 38 7 23 0 47-16.5t37-33.5l13-16q14-21 18-45l25-123 8-44q1-9 8.5-14.5t17.5-5.5h61q10 0 17.5-7.5t7.5-17.5v-50q0-10-7.5-17.5t-17.5-7.5h-50q-10 0-17.5-7.5t-7.5-17.5v-175h-400v300h-200v-300h-400v175q0 10-7.5 17.5t-17.5 7.5h-50q-10 0-17.5 7.5t-7.5 17.5v50q0 10 7.5 17.5t17.5 7.5h61q11 0 18 3t7 8q0 4 9 52l25 128q5 25 19 45 2 3 5 7t13.5 15 21.5 19.5 26.5 15.5 29.5 7zM915 1079l-166-162q-7-7-5-12t12-5h219q10 0 15 7t2 17l-51 149q-3 10-11 12t-15-6zM463 917l-177 157q-8 7-16 5t-11-12l-51-143q-3-10 2-17t15-7h231q11 0 12.5 5t-5.5 12zM500 0h-375q-10 0-17.5 7.5t-7.5 17.5v375h400v-400zM1100 400v-375q0-10-7.5-17.5t-17.5-7.5h-375v400h400z" unicode="&#xe102;"/><glyph d="M1165 1190q8 3 21-6.5t13-17.5q-2-178-24.5-323.5t-55.5-245.5-87-174.5-102.5-118.5-118-68.5-118.5-33-120-4.5-105 9.5-90 16.5q-61 12-78 11-4 1-12.5 0t-34-14.5-52.5-40.5l-153-153q-26-24-37-14.5t-11 43.5q0 64 42 102 8 8 50.5 45t66.5 58q19 17 35 47t13 61q-9 55-10 102.5t7 111 37 130 78 129.5q39 51 80 88t89.5 63.5 94.5 45 113.5 36 129 31 157.5 37 182 47.5zM1116 1098q-8 9-22.5-3t-45.5-50q-38-47-119-103.5t-142-89.5l-62-33q-56-30-102-57t-104-68-102.5-80.5-85.5-91-64-104.5q-24-56-31-86t2-32 31.5 17.5 55.5 59.5q25 30 94 75.5t125.5 77.5 147.5 81q70 37 118.5 69t102 79.5 99 111 86.5 148.5q22 50 24 60t-6 19z" unicode="&#xe103;"/><glyph d="M653 1231q-39-67-54.5-131t-10.5-114.5 24.5-96.5 47.5-80 63.5-62.5 68.5-46.5 65-30q-4 7-17.5 35t-18.5 39.5-17 39.5-17 43-13 42-9.5 44.5-2 42 4 43 13.5 39 23 38.5q96-42 165-107.5t105-138 52-156 13-159-19-149.5q-13-55-44-106.5t-68-87-78.5-64.5-72.5-45-53-22q-72-22-127-11-31 6-13 19 6 3 17 7 13 5 32.5 21t41 44 38.5 63.5 21.5 81.5-6.5 94.5-50 107-104 115.5q10-104-.5-189t-37-140.5-65-93-84-52-93.5-11-95 24.5q-80 36-131.5 114t-53.5 171q-2 23 0 49.5t4.5 52.5 13.5 56 27.5 60 46 64.5 69.5 68.5q-8-53-5-102.5t17.5-90 34-68.5 44.5-39 49-2q31 13 38.5 36t-4.5 55-29 64.5-36 75-26 75.5q-15 85 2 161.5t53.5 128.5 85.5 92.5 93.5 61 81.5 25.5z" unicode="&#xe104;"/><glyph d="M600 1094q82 0 160.5-22.5t140-59 116.5-82.5 94.5-95 68-95 42.5-82.5 14-57.5-14-57.5-43-82.5-68.5-95-94.5-95-116.5-82.5-140-59-159.5-22.5-159.5 22.5-140 59-116.5 82.5-94.5 95-68.5 95-43 82.5-14 57.5 14 57.5 42.5 82.5 68 95 94.5 95 116.5 82.5 140 59 160.5 22.5zM888 829q-15 15-18 12t5-22q25-57 25-119 0-124-88-212t-212-88-212 88-88 212q0 59 23 114 8 19 4.5 22t-17.5-12q-70-69-160-184-13-16-15-40.5t9-42.5q22-36 47-71t70-82 92.5-81 113-58.5 133.5-24.5 133.5 24 113 58.5 92.5 81.5 70 81.5 47 70.5q11 18 9 42.5t-14 41.5q-90 117-163 189zM448 727l-35-36q-15-15-19.5-38.5t4.5-41.5q37-68 93-116 16-13 38.5-11t36.5 17l35 34q14 15 12.5 33.5t-16.5 33.5q-44 44-89 117-11 18-28 20t-32-12z" unicode="&#xe105;"/><glyph d="M592 0h-148l31 120q-91 20-175.5 68.5t-143.5 106.5-103.5 119-66.5 110-22 76q0 21 14 57.5t42.5 82.5 68 95 94.5 95 116.5 82.5 140 59 160.5 22.5q61 0 126-15l32 121h148zM944 770l47 181q108-85 176.5-192t68.5-159q0-26-19.5-71t-59.5-102-93-112-129-104.5-158-75.5l46 173q77 49 136 117t97 131q11 18 9 42.5t-14 41.5q-54 70-107 130zM310 824q-70-69-160-184-13-16-15-40.5t9-42.5q18-30 39-60t57-70.5 74-73 90-61 105-41.5l41 154q-107 18-178.5 101.5t-71.5 193.5q0 59 23 114 8 19 4.5 22t-17.5-12zM448 727l-35-36q-15-15-19.5-38.5t4.5-41.5q37-68 93-116 16-13 38.5-11t36.5 17l12 11 22 86-3 4q-44 44-89 117-11 18-28 20t-32-12z" unicode="&#xe106;"/><glyph d="M-90 100l642 1066q20 31 48 28.5t48-35.5l642-1056q21-32 7.5-67.5t-50.5-35.5h-1294q-37 0-50.5 34t7.5 66zM155 200h345v75q0 10 7.5 17.5t17.5 7.5h150q10 0 17.5-7.5t7.5-17.5v-75h345l-445 723zM496 700h208q20 0 32-14.5t8-34.5l-58-252q-4-20-21.5-34.5t-37.5-14.5h-54q-20 0-37.5 14.5t-21.5 34.5l-58 252q-4 20 8 34.5t32 14.5z" unicode="&#xe107;"/><glyph d="M650 1200q62 0 106-44t44-106v-339l363-325q15-14 26-38.5t11-44.5v-41q0-20-12-26.5t-29 5.5l-359 249v-263q100-93 100-113v-64q0-21-13-29t-32 1l-205 128-205-128q-19-9-32-1t-13 29v64q0 20 100 113v263l-359-249q-17-12-29-5.5t-12 26.5v41q0 20 11 44.5t26 38.5l363 325v339q0 62 44 106t106 44z" unicode="&#xe108;"/><glyph d="M850 1200h100q21 0 35.5-14.5t14.5-35.5v-50h50q21 0 35.5-14.5t14.5-35.5v-150h-1100v150q0 21 14.5 35.5t35.5 14.5h50v50q0 21 14.5 35.5t35.5 14.5h100q21 0 35.5-14.5t14.5-35.5v-50h500v50q0 21 14.5 35.5t35.5 14.5zM1100 800v-750q0-21-14.5-35.5t-35.5-14.5h-1000q-21 0-35.5 14.5t-14.5 35.5v750h1100zM100 600v-100h100v100h-100zM300 600v-100h100v100h-100zM500 600v-100h100v100h-100zM700 600v-100h100v100h-100zM900 600v-100h100v100h-100zM100 400v-100h100v100h-100zM300 400v-100h100v100h-100zM500 400v-100h100v100h-100zM700 400v-100h100v100h-100zM900 400v-100h100v100h-100zM100 200v-100h100v100h-100zM300 200v-100h100v100h-100zM500 200v-100h100v100h-100zM700 200v-100h100v100h-100zM900 200v-100h100v100h-100z" unicode="&#xe109;"/><glyph d="M1135 1165l249-230q15-14 15-35t-15-35l-249-230q-14-14-24.5-10t-10.5 25v150h-159l-600-600h-291q-21 0-35.5 14.5t-14.5 35.5v100q0 21 14.5 35.5t35.5 14.5h209l600 600h241v150q0 21 10.5 25t24.5-10zM522 819l-141-141-122 122h-209q-21 0-35.5 14.5t-14.5 35.5v100q0 21 14.5 35.5t35.5 14.5h291zM1135 565l249-230q15-14 15-35t-15-35l-249-230q-14-14-24.5-10t-10.5 25v150h-241l-181 181 141 141 122-122h159v150q0 21 10.5 25t24.5-10z" unicode="&#xe110;"/><glyph d="M100 1100h1000q41 0 70.5-29.5t29.5-70.5v-600q0-41-29.5-70.5t-70.5-29.5h-596l-304-300v300h-100q-41 0-70.5 29.5t-29.5 70.5v600q0 41 29.5 70.5t70.5 29.5z" unicode="&#xe111;"/><glyph d="M150 1200h200q21 0 35.5-14.5t14.5-35.5v-250h-300v250q0 21 14.5 35.5t35.5 14.5zM850 1200h200q21 0 35.5-14.5t14.5-35.5v-250h-300v250q0 21 14.5 35.5t35.5 14.5zM1100 800v-300q0-41-3-77.5t-15-89.5-32-96-58-89-89-77-129-51-174-20-174 20-129 51-89 77-58 89-32 96-15 89.5-3 77.5v300h300v-250-27-42.5t1.5-41 5-38 10-35 16.5-30 25.5-24.5 35-19 46.5-12 60-4 60 4.5 46.5 12.5 35 19.5 25 25.5 17 30.5 10 35 5 38 2 40.5-.5 42v25 250h300z" unicode="&#xe112;"/><glyph d="M1100 411l-198-199-353 353-353-353-197 199 551 551z" unicode="&#xe113;"/><glyph d="M1101 789l-550-551-551 551 198 199 353-353 353 353z" unicode="&#xe114;"/><glyph d="M404 1000h746q21 0 35.5-14.5t14.5-35.5v-551h150q21 0 25-10.5t-10-24.5l-230-249q-14-15-35-15t-35 15l-230 249q-14 14-10 24.5t25 10.5h150v401h-381zM135 984l230-249q14-14 10-24.5t-25-10.5h-150v-400h385l215-200h-750q-21 0-35.5 14.5t-14.5 35.5v550h-150q-21 0-25 10.5t10 24.5l230 249q14 15 35 15t35-15z" unicode="&#xe115;"/><glyph d="M56 1200h94q17 0 31-11t18-27l38-162h896q24 0 39-18.5t10-42.5l-100-475q-5-21-27-42.5t-55-21.5h-633l48-200h535q21 0 35.5-14.5t14.5-35.5-14.5-35.5-35.5-14.5h-50v-50q0-21-14.5-35.5t-35.5-14.5-35.5 14.5-14.5 35.5v50h-300v-50q0-21-14.5-35.5t-35.5-14.5-35.5 14.5-14.5 35.5v50h-31q-18 0-32.5 10t-20.5 19l-5 10-201 961h-54q-20 0-35 14.5t-15 35.5 15 35.5 35 14.5z" unicode="&#xe116;"/><glyph d="M1200 1000v-100h-1200v100h200q0 41 29.5 70.5t70.5 29.5h300q41 0 70.5-29.5t29.5-70.5h500zM0 800h1200v-800h-1200v800z" unicode="&#xe117;"/><glyph d="M200 800l-200-400v600h200q0 41 29.5 70.5t70.5 29.5h300q42 0 71-29.5t29-70.5h500v-200h-1000zM1500 700l-300-700h-1200l300 700h1200z" unicode="&#xe118;"/><glyph d="M635 1184l230-249q14-14 10-24.5t-25-10.5h-150v-601h150q21 0 25-10.5t-10-24.5l-230-249q-14-15-35-15t-35 15l-230 249q-14 14-10 24.5t25 10.5h150v601h-150q-21 0-25 10.5t10 24.5l230 249q14 15 35 15t35-15z" unicode="&#xe119;"/><glyph d="M936 864l249-229q14-15 14-35.5t-14-35.5l-249-229q-15-15-25.5-10.5t-10.5 24.5v151h-600v-151q0-20-10.5-24.5t-25.5 10.5l-249 229q-14 15-14 35.5t14 35.5l249 229q15 15 25.5 10.5t10.5-25.5v-149h600v149q0 21 10.5 25.5t25.5-10.5z" unicode="&#xe120;"/><glyph d="M1169 400l-172 732q-5 23-23 45.5t-38 22.5h-672q-20 0-38-20t-23-41l-172-739h1138zM1100 300h-1000q-41 0-70.5-29.5t-29.5-70.5v-100q0-41 29.5-70.5t70.5-29.5h1000q41 0 70.5 29.5t29.5 70.5v100q0 41-29.5 70.5t-70.5 29.5zM800 100v100h100v-100h-100zM1000 100v100h100v-100h-100z" unicode="&#xe121;"/><glyph d="M1150 1100q21 0 35.5-14.5t14.5-35.5v-850q0-21-14.5-35.5t-35.5-14.5-35.5 14.5-14.5 35.5v850q0 21 14.5 35.5t35.5 14.5zM1000 200l-675 200h-38l47-276q3-16-5.5-20t-29.5-4h-7-84q-20 0-34.5 14t-18.5 35q-55 337-55 351v250 6q0 16 1 23.5t6.5 14 17.5 6.5h200l675 250v-850zM0 750v-250q-4 0-11 .5t-24 6-30 15-24 30-11 48.5v50q0 26 10.5 46t25 30 29 16 25.5 7z" unicode="&#xe122;"/><glyph d="M553 1200h94q20 0 29-10.5t3-29.5l-18-37q83-19 144-82.5t76-140.5l63-327 118-173h17q19 0 33-14.5t14-35-13-40.5-31-27q-8-4-23-9.5t-65-19.5-103-25-132.5-20-158.5-9q-57 0-115 5t-104 12-88.5 15.5-73.5 17.5-54.5 16-35.5 12l-11 4q-18 8-31 28t-13 40.5 14 35 33 14.5h17l118 173 63 327q15 77 76 140t144 83l-18 32q-6 19 3.5 32t28.5 13zM498 110q50-6 102-6 53 0 102 6-12-49-39.5-79.5t-62.5-30.5-63 30.5-39 79.5z" unicode="&#xe123;"/><glyph d="M800 946l224 78-78-224 234-45-180-155 180-155-234-45 78-224-224 78-45-234-155 180-155-180-45 234-224-78 78 224-234 45 180 155-180 155 234 45-78 224 224-78 45 234 155-180 155 180z" unicode="&#xe124;"/><glyph d="M650 1200h50q40 0 70-40.5t30-84.5v-150l-28-125h328q40 0 70-40.5t30-84.5v-100q0-45-29-74l-238-344q-16-24-38-40.5t-45-16.5h-250q-7 0-42 25t-66 50l-31 25h-61q-45 0-72.5 18t-27.5 57v400q0 36 20 63l145 196 96 198q13 28 37.5 48t51.5 20zM650 1100l-100-212-150-213v-375h100l136-100h214l250 375v125h-450l50 225v175h-50zM50 800h100q21 0 35.5-14.5t14.5-35.5v-500q0-21-14.5-35.5t-35.5-14.5h-100q-21 0-35.5 14.5t-14.5 35.5v500q0 21 14.5 35.5t35.5 14.5z" unicode="&#xe125;"/><glyph d="M600 1100h250q23 0 45-16.5t38-40.5l238-344q29-29 29-74v-100q0-44-30-84.5t-70-40.5h-328q28-118 28-125v-150q0-44-30-84.5t-70-40.5h-50q-27 0-51.5 20t-37.5 48l-96 198-145 196q-20 27-20 63v400q0 39 27.5 57t72.5 18h61q124 100 139 100zM50 1000h100q21 0 35.5-14.5t14.5-35.5v-500q0-21-14.5-35.5t-35.5-14.5h-100q-21 0-35.5 14.5t-14.5 35.5v500q0 21 14.5 35.5t35.5 14.5zM636 1000l-136-100h-100v-375l150-213 100-212h50v175l-50 225h450v125l-250 375h-214z" unicode="&#xe126;"/><glyph d="M356 873l363 230q31 16 53-6l110-112q13-13 13.5-32t-11.5-34l-84-121h302q84 0 138-38t54-110-55-111-139-39h-106l-131-339q-6-21-19.5-41t-28.5-20h-342q-7 0-90 81t-83 94v525q0 17 14 35.5t28 28.5zM400 792v-503l100-89h293l131 339q6 21 19.5 41t28.5 20h203q21 0 30.5 25t.5 50-31 25h-456-7-6-5.5t-6 .5-5 1.5-5 2-4 2.5-4 4-2.5 4.5q-12 25 5 47l146 183-86 83zM50 800h100q21 0 35.5-14.5t14.5-35.5v-500q0-21-14.5-35.5t-35.5-14.5h-100q-21 0-35.5 14.5t-14.5 35.5v500q0 21 14.5 35.5t35.5 14.5z" unicode="&#xe127;"/><glyph d="M475 1103l366-230q2-1 6-3.5t14-10.5 18-16.5 14.5-20 6.5-22.5v-525q0-13-86-94t-93-81h-342q-15 0-28.5 20t-19.5 41l-131 339h-106q-85 0-139.5 39t-54.5 111 54 110 138 38h302l-85 121q-11 15-10.5 34t13.5 32l110 112q22 22 53 6zM370 945l146-183q17-22 5-47-2-2-3.5-4.5t-4-4-4-2.5-5-2-5-1.5-6-.5h-6-6.5-6-475v-100h221q15 0 29-20t20-41l130-339h294l106 89v503l-342 236zM1050 800h100q21 0 35.5-14.5t14.5-35.5v-500q0-21-14.5-35.5t-35.5-14.5h-100q-21 0-35.5 14.5t-14.5 35.5v500q0 21 14.5 35.5t35.5 14.5z" unicode="&#xe128;"/><glyph d="M550 1294q72 0 111-55t39-139v-106l339-131q21-6 41-19.5t20-28.5v-342q0-7-81-90t-94-83h-525q-17 0-35.5 14t-28.5 28l-9 14-230 363q-16 31 6 53l112 110q13 13 32 13.5t34-11.5l121-84v302q0 84 38 138t110 54zM600 972v203q0 21-25 30.5t-50 .5-25-31v-456-7-6-5.5t-.5-6-1.5-5-2-5-2.5-4-4-4-4.5-2.5q-25-12-47 5l-183 146-83-86 236-339h503l89 100v293l-339 131q-21 6-41 19.5t-20 28.5zM450 200h500q21 0 35.5-14.5t14.5-35.5v-100q0-21-14.5-35.5t-35.5-14.5h-500q-21 0-35.5 14.5t-14.5 35.5v100q0 21 14.5 35.5t35.5 14.5z" unicode="&#xe129;"/><glyph d="M350 1100h500q21 0 35.5 14.5t14.5 35.5v100q0 21-14.5 35.5t-35.5 14.5h-500q-21 0-35.5-14.5t-14.5-35.5v-100q0-21 14.5-35.5t35.5-14.5zM600 306v-106q0-84-39-139t-111-55-110 54-38 138v302l-121-84q-15-12-34-11.5t-32 13.5l-112 110q-22 22-6 53l230 363q1 2 3.5 6t10.5 13.5 16.5 17 20 13.5 22.5 6h525q13 0 94-83t81-90v-342q0-15-20-28.5t-41-19.5zM308 900l-236-339 83-86 183 146q22 17 47 5 2-1 4.5-2.5t4-4 2.5-4 2-5 1.5-5 .5-6v-5.5-6-7-456q0-22 25-31t50 .5 25 30.5v203q0 15 20 28.5t41 19.5l339 131v293l-89 100h-503z" unicode="&#xe130;"/><glyph d="M600 1178q118 0 225-45.5t184.5-123 123-184.5 45.5-225-45.5-225-123-184.5-184.5-123-225-45.5-225 45.5-184.5 123-123 184.5-45.5 225 45.5 225 123 184.5 184.5 123 225 45.5zM914 632l-275 223q-16 13-27.5 8t-11.5-26v-137h-275q-10 0-17.5-7.5t-7.5-17.5v-150q0-10 7.5-17.5t17.5-7.5h275v-137q0-21 11.5-26t27.5 8l275 223q16 13 16 32t-16 32z" unicode="&#xe131;"/><glyph d="M600 1178q118 0 225-45.5t184.5-123 123-184.5 45.5-225-45.5-225-123-184.5-184.5-123-225-45.5-225 45.5-184.5 123-123 184.5-45.5 225 45.5 225 123 184.5 184.5 123 225 45.5zM561 855l-275-223q-16-13-16-32t16-32l275-223q16-13 27.5-8t11.5 26v137h275q10 0 17.5 7.5t7.5 17.5v150q0 10-7.5 17.5t-17.5 7.5h-275v137q0 21-11.5 26t-27.5-8z" unicode="&#xe132;"/><glyph d="M600 1178q118 0 225-45.5t184.5-123 123-184.5 45.5-225-45.5-225-123-184.5-184.5-123-225-45.5-225 45.5-184.5 123-123 184.5-45.5 225 45.5 225 123 184.5 184.5 123 225 45.5zM855 639l-223 275q-13 16-32 16t-32-16l-223-275q-13-16-8-27.5t26-11.5h137v-275q0-10 7.5-17.5t17.5-7.5h150q10 0 17.5 7.5t7.5 17.5v275h137q21 0 26 11.5t-8 27.5z" unicode="&#xe133;"/><glyph d="M600 1178q118 0 225-45.5t184.5-123 123-184.5 45.5-225-45.5-225-123-184.5-184.5-123-225-45.5-225 45.5-184.5 123-123 184.5-45.5 225 45.5 225 123 184.5 184.5 123 225 45.5zM675 900h-150q-10 0-17.5-7.5t-7.5-17.5v-275h-137q-21 0-26-11.5t8-27.5l223-275q13-16 32-16t32 16l223 275q13 16 8 27.5t-26 11.5h-137v275q0 10-7.5 17.5t-17.5 7.5z" unicode="&#xe134;"/><glyph d="M600 1176q116 0 222.5-46t184-123.5 123.5-184 46-222.5-46-222.5-123.5-184-184-123.5-222.5-46-222.5 46-184 123.5-123.5 184-46 222.5 46 222.5 123.5 184 184 123.5 222.5 46zM627 1101q-15-12-36.5-20.5t-35.5-12-43-8-39-6.5q-15-3-45.5 0t-45.5-2q-20-7-51.5-26.5t-34.5-34.5q-3-11 6.5-22.5t8.5-18.5q-3-34-27.5-91t-29.5-79q-9-34 5-93t8-87q0-9 17-44.5t16-59.5q12 0 23-5t23.5-15 19.5-14q16-8 33-15t40.5-15 34.5-12q21-9 52.5-32t60-38 57.5-11q7-15-3-34t-22.5-40-9.5-38q13-21 23-34.5t27.5-27.5 36.5-18q0-7-3.5-16t-3.5-14 5-17q104-2 221 112 30 29 46.5 47t34.5 49 21 63q-13 8-37 8.5t-36 7.5q-15 7-49.5 15t-51.5 19q-18 0-41-.5t-43-1.5-42-6.5-38-16.5q-51-35-66-12-4 1-3.5 25.5t.5 25.5q-6 13-26.5 17.5t-24.5 6.5q1 15-.5 30.5t-7 28-18.5 11.5-31-21q-23-25-42 4-19 28-8 58 6 16 22 22 6-1 26-1.5t33.5-4 19.5-13.5q7-12 18-24t21.5-20.5 20-15 15.5-10.5l5-3q2 12 7.5 30.5t8 34.5-.5 32q-3 18 3.5 29t18 22.5 15.5 24.5q6 14 10.5 35t8 31 15.5 22.5 34 22.5q-6 18 10 36 8 0 24-1.5t24.5-1.5 20 4.5 20.5 15.5q-10 23-31 42.5t-37.5 29.5-49 27-43.5 23q0 1 2 8t3 11.5 1.5 10.5-1 9.5-4.5 4.5q31-13 58.5-14.5t38.5 2.5l12 5q5 28-9.5 46t-36.5 24-50 15-41 20q-18-4-37 0zM613 994q0-17 8-42t17-45 9-23q-8 1-39.5 5.5t-52.5 10-37 16.5q3 11 16 29.5t16 25.5q10-10 19-10t14 6 13.5 14.5 16.5 12.5z" unicode="&#xe135;"/><glyph d="M756 1157q164 92 306-9l-259-138 145-232 251 126q6-89-34-156.5t-117-110.5q-60-34-127-39.5t-126 16.5l-596-596q-15-16-36.5-16t-36.5 16l-111 110q-15 15-15 36.5t15 37.5l600 599q-34 101 5.5 201.5t135.5 154.5z" unicode="&#xe136;"/><glyph d="M100 1196h1000q41 0 70.5-29.5t29.5-70.5v-100q0-41-29.5-70.5t-70.5-29.5h-1000q-41 0-70.5 29.5t-29.5 70.5v100q0 41 29.5 70.5t70.5 29.5zM1100 1096h-200v-100h200v100zM100 796h1000q41 0 70.5-29.5t29.5-70.5v-100q0-41-29.5-70.5t-70.5-29.5h-1000q-41 0-70.5 29.5t-29.5 70.5v100q0 41 29.5 70.5t70.5 29.5zM1100 696h-500v-100h500v100zM100 396h1000q41 0 70.5-29.5t29.5-70.5v-100q0-41-29.5-70.5t-70.5-29.5h-1000q-41 0-70.5 29.5t-29.5 70.5v100q0 41 29.5 70.5t70.5 29.5zM1100 296h-300v-100h300v100z" horiz-adv-x="1220" unicode="&#xe137;"/><glyph d="M150 1200h900q21 0 35.5-14.5t14.5-35.5-14.5-35.5-35.5-14.5h-900q-21 0-35.5 14.5t-14.5 35.5 14.5 35.5 35.5 14.5zM700 500v-300l-200-200v500l-350 500h900z" unicode="&#xe138;"/><glyph d="M500 1200h200q41 0 70.5-29.5t29.5-70.5v-100h300q41 0 70.5-29.5t29.5-70.5v-400h-500v100h-200v-100h-500v400q0 41 29.5 70.5t70.5 29.5h300v100q0 41 29.5 70.5t70.5 29.5zM500 1100v-100h200v100h-200zM1200 400v-200q0-41-29.5-70.5t-70.5-29.5h-1000q-41 0-70.5 29.5t-29.5 70.5v200h1200z" unicode="&#xe139;"/><glyph d="M50 1200h300q21 0 25-10.5t-10-24.5l-94-94 199-199q7-8 7-18t-7-18l-106-106q-8-7-18-7t-18 7l-199 199-94-94q-14-14-24.5-10t-10.5 25v300q0 21 14.5 35.5t35.5 14.5zM850 1200h300q21 0 35.5-14.5t14.5-35.5v-300q0-21-10.5-25t-24.5 10l-94 94-199-199q-8-7-18-7t-18 7l-106 106q-7 8-7 18t7 18l199 199-94 94q-14 14-10 24.5t25 10.5zM364 470l106-106q7-8 7-18t-7-18l-199-199 94-94q14-14 10-24.5t-25-10.5h-300q-21 0-35.5 14.5t-14.5 35.5v300q0 21 10.5 25t24.5-10l94-94 199 199q8 7 18 7t18-7zM1071 271l94 94q14 14 24.5 10t10.5-25v-300q0-21-14.5-35.5t-35.5-14.5h-300q-21 0-25 10.5t10 24.5l94 94-199 199q-7 8-7 18t7 18l106 106q8 7 18 7t18-7z" unicode="&#xe140;"/><glyph d="M596 1192q121 0 231.5-47.5t190-127 127-190 47.5-231.5-47.5-231.5-127-190.5-190-127-231.5-47-231.5 47-190.5 127-127 190.5-47 231.5 47 231.5 127 190 190.5 127 231.5 47.5zM596 1010q-112 0-207.5-55.5t-151-151-55.5-207.5 55.5-207.5 151-151 207.5-55.5 207.5 55.5 151 151 55.5 207.5-55.5 207.5-151 151-207.5 55.5zM454.5 905q22.5 0 38.5-16t16-38.5-16-39-38.5-16.5-38.5 16.5-16 39 16 38.5 38.5 16zM754.5 905q22.5 0 38.5-16t16-38.5-16-39-38-16.5q-14 0-29 10l-55-145q17-23 17-51 0-36-25.5-61.5t-61.5-25.5-61.5 25.5-25.5 61.5q0 32 20.5 56.5t51.5 29.5l122 126 1 1q-9 14-9 28 0 23 16 39t38.5 16zM345.5 709q22.5 0 38.5-16t16-38.5-16-38.5-38.5-16-38.5 16-16 38.5 16 38.5 38.5 16zM854.5 709q22.5 0 38.5-16t16-38.5-16-38.5-38.5-16-38.5 16-16 38.5 16 38.5 38.5 16z" unicode="&#xe141;"/><glyph d="M546 173l469 470q91 91 99 192 7 98-52 175.5t-154 94.5q-22 4-47 4-34 0-66.5-10t-56.5-23-55.5-38-48-41.5-48.5-47.5q-376-375-391-390-30-27-45-41.5t-37.5-41-32-46.5-16-47.5-1.5-56.5q9-62 53.5-95t99.5-33q74 0 125 51l548 548q36 36 20 75-7 16-21.5 26t-32.5 10q-26 0-50-23-13-12-39-38l-341-338q-15-15-35.5-15.5t-34.5 13.5-14 34.5 14 34.5q327 333 361 367 35 35 67.5 51.5t78.5 16.5q14 0 29-1 44-8 74.5-35.5t43.5-68.5q14-47 2-96.5t-47-84.5q-12-11-32-32t-79.5-81-114.5-115-124.5-123.5-123-119.5-96.5-89-57-45q-56-27-120-27-70 0-129 32t-93 89q-48 78-35 173t81 163l511 511q71 72 111 96 91 55 198 55 80 0 152-33 78-36 129.5-103t66.5-154q17-93-11-183.5t-94-156.5l-482-476q-15-15-36-16t-37 14-17.5 34 14.5 35z" unicode="&#xe142;"/><glyph d="M649 949q48 68 109.5 104t121.5 38.5 118.5-20 102.5-64 71-100.5 27-123q0-57-33.5-117.5t-94-124.5-126.5-127.5-150-152.5-146-174q-62 85-145.5 174t-150 152.5-126.5 127.5-93.5 124.5-33.5 117.5q0 64 28 123t73 100.5 104 64 119 20 120.5-38.5 104.5-104zM896 972q-33 0-64.5-19t-56.5-46-47.5-53.5-43.5-45.5-37.5-19-36 19-40 45.5-43 53.5-54 46-65.5 19q-67 0-122.5-55.5t-55.5-132.5q0-23 13.5-51t46-65 57.5-63 76-75l22-22q15-14 44-44t50.5-51 46-44 41-35 23-12 23.5 12 42.5 36 46 44 52.5 52 44 43q4 4 12 13 43 41 63.5 62t52 55 46 55 26 46 11.5 44q0 79-53 133.5t-120 54.5z" unicode="&#xe143;"/><glyph d="M776.5 1214q93.5 0 159.5-66l141-141q66-66 66-160 0-42-28-95.5t-62-87.5l-29-29q-31 53-77 99l-18 18 95 95-247 248-389-389 212-212-105-106-19 18-141 141q-66 66-66 159t66 159l283 283q65 66 158.5 66zM600 706l105 105q10-8 19-17l141-141q66-66 66-159t-66-159l-283-283q-66-66-159-66t-159 66l-141 141q-66 66-66 159.5t66 159.5l55 55q29-55 75-102l18-17-95-95 247-248 389 389z" unicode="&#xe144;"/><glyph d="M603 1200q85 0 162-15t127-38 79-48 29-46v-953q0-41-29.5-70.5t-70.5-29.5h-600q-41 0-70.5 29.5t-29.5 70.5v953q0 21 30 46.5t81 48 129 37.5 163 15zM300 1000v-700h600v700h-600zM600 254q-43 0-73.5-30.5t-30.5-73.5 30.5-73.5 73.5-30.5 73.5 30.5 30.5 73.5-30.5 73.5-73.5 30.5z" unicode="&#xe145;"/><glyph d="M902 1185l283-282q15-15 15-36t-14.5-35.5-35.5-14.5-35 15l-36 35-279-267v-300l-212 210-308-307-280-203 203 280 307 308-210 212h300l267 279-35 36q-15 14-15 35t14.5 35.5 35.5 14.5 35-15z" unicode="&#xe146;"/><glyph d="M700 1248v-78q38-5 72.5-14.5t75.5-31.5 71-53.5 52-84 24-118.5h-159q-4 36-10.5 59t-21 45-40 35.5-64.5 20.5v-307l64-13q34-7 64-16.5t70-32 67.5-52.5 47.5-80 20-112q0-139-89-224t-244-97v-77h-100v79q-150 16-237 103-40 40-52.5 93.5t-15.5 139.5h139q5-77 48.5-126t117.5-65v335l-27 8q-46 14-79 26.5t-72 36-63 52-40 72.5-16 98q0 70 25 126t67.5 92 94.5 57 110 27v77h100zM600 754v274q-29-4-50-11t-42-21.5-31.5-41.5-10.5-65q0-29 7-50.5t16.5-34 28.5-22.5 31.5-14 37.5-10q9-3 13-4zM700 547v-310q22 2 42.5 6.5t45 15.5 41.5 27 29 42 12 59.5-12.5 59.5-38 44.5-53 31-66.5 24.5z" unicode="&#xe148;"/><glyph d="M561 1197q84 0 160.5-40t123.5-109.5 47-147.5h-153q0 40-19.5 71.5t-49.5 48.5-59.5 26-55.5 9q-37 0-79-14.5t-62-35.5q-41-44-41-101 0-26 13.5-63t26.5-61 37-66q6-9 9-14h241v-100h-197q8-50-2.5-115t-31.5-95q-45-62-99-112 34 10 83 17.5t71 7.5q32 1 102-16t104-17q83 0 136 30l50-147q-31-19-58-30.5t-55-15.5-42-4.5-46-.5q-23 0-76 17t-111 32.5-96 11.5q-39-3-82-16t-67-25l-23-11-55 145q4 3 16 11t15.5 10.5 13 9 15.5 12 14.5 14 17.5 18.5q48 55 54 126.5t-30 142.5h-221v100h166q-23 47-44 104-7 20-12 41.5t-6 55.5 6 66.5 29.5 70.5 58.5 71q97 88 263 88z" unicode="&#xe149;"/><glyph d="M400 300h150q21 0 25-11t-10-25l-230-250q-14-15-35-15t-35 15l-230 250q-14 14-10 25t25 11h150v900h200v-900zM935 1184l230-249q14-14 10-24.5t-25-10.5h-150v-900h-200v900h-150q-21 0-25 10.5t10 24.5l230 249q14 15 35 15t35-15z" unicode="&#xe150;"/><glyph d="M1000 700h-100v100h-100v-100h-100v500h300v-500zM400 300h150q21 0 25-11t-10-25l-230-250q-14-15-35-15t-35 15l-230 250q-14 14-10 25t25 11h150v900h200v-900zM801 1100v-200h100v200h-100zM1000 350l-200-250h200v-100h-300v150l200 250h-200v100h300v-150z" unicode="&#xe151;"/><glyph d="M400 300h150q21 0 25-11t-10-25l-230-250q-14-15-35-15t-35 15l-230 250q-14 14-10 25t25 11h150v900h200v-900zM1000 1050l-200-250h200v-100h-300v150l200 250h-200v100h300v-150zM1000 0h-100v100h-100v-100h-100v500h300v-500zM801 400v-200h100v200h-100z" unicode="&#xe152;"/><glyph d="M400 300h150q21 0 25-11t-10-25l-230-250q-14-15-35-15t-35 15l-230 250q-14 14-10 25t25 11h150v900h200v-900zM1000 700h-100v400h-100v100h200v-500zM1100 0h-100v100h-200v400h300v-500zM901 400v-200h100v200h-100z" unicode="&#xe153;"/><glyph d="M400 300h150q21 0 25-11t-10-25l-230-250q-14-15-35-15t-35 15l-230 250q-14 14-10 25t25 11h150v900h200v-900zM1100 700h-100v100h-200v400h300v-500zM901 1100v-200h100v200h-100zM1000 0h-100v400h-100v100h200v-500z" unicode="&#xe154;"/><glyph d="M400 300h150q21 0 25-11t-10-25l-230-250q-14-15-35-15t-35 15l-230 250q-14 14-10 25t25 11h150v900h200v-900zM900 1000h-200v200h200v-200zM1000 700h-300v200h300v-200zM1100 400h-400v200h400v-200zM1200 100h-500v200h500v-200z" unicode="&#xe155;"/><glyph d="M400 300h150q21 0 25-11t-10-25l-230-250q-14-15-35-15t-35 15l-230 250q-14 14-10 25t25 11h150v900h200v-900zM1200 1000h-500v200h500v-200zM1100 700h-400v200h400v-200zM1000 400h-300v200h300v-200zM900 100h-200v200h200v-200z" unicode="&#xe156;"/><glyph d="M350 1100h400q162 0 256-93.5t94-256.5v-400q0-165-93.5-257.5t-256.5-92.5h-400q-165 0-257.5 92.5t-92.5 257.5v400q0 165 92.5 257.5t257.5 92.5zM800 900h-500q-41 0-70.5-29.5t-29.5-70.5v-500q0-41 29.5-70.5t70.5-29.5h500q41 0 70.5 29.5t29.5 70.5v500q0 41-29.5 70.5t-70.5 29.5z" unicode="&#xe157;"/><glyph d="M350 1100h400q165 0 257.5-92.5t92.5-257.5v-400q0-165-92.5-257.5t-257.5-92.5h-400q-163 0-256.5 92.5t-93.5 257.5v400q0 163 94 256.5t256 93.5zM800 900h-500q-41 0-70.5-29.5t-29.5-70.5v-500q0-41 29.5-70.5t70.5-29.5h500q41 0 70.5 29.5t29.5 70.5v500q0 41-29.5 70.5t-70.5 29.5zM440 770l253-190q17-12 17-30t-17-30l-253-190q-16-12-28-6.5t-12 26.5v400q0 21 12 26.5t28-6.5z" unicode="&#xe158;"/><glyph d="M350 1100h400q163 0 256.5-94t93.5-256v-400q0-165-92.5-257.5t-257.5-92.5h-400q-165 0-257.5 92.5t-92.5 257.5v400q0 163 92.5 256.5t257.5 93.5zM800 900h-500q-41 0-70.5-29.5t-29.5-70.5v-500q0-41 29.5-70.5t70.5-29.5h500q41 0 70.5 29.5t29.5 70.5v500q0 41-29.5 70.5t-70.5 29.5zM350 700h400q21 0 26.5-12t-6.5-28l-190-253q-12-17-30-17t-30 17l-190 253q-12 16-6.5 28t26.5 12z" unicode="&#xe159;"/><glyph d="M350 1100h400q165 0 257.5-92.5t92.5-257.5v-400q0-163-92.5-256.5t-257.5-93.5h-400q-163 0-256.5 94t-93.5 256v400q0 165 92.5 257.5t257.5 92.5zM800 900h-500q-41 0-70.5-29.5t-29.5-70.5v-500q0-41 29.5-70.5t70.5-29.5h500q41 0 70.5 29.5t29.5 70.5v500q0 41-29.5 70.5t-70.5 29.5zM580 693l190-253q12-16 6.5-28t-26.5-12h-400q-21 0-26.5 12t6.5 28l190 253q12 17 30 17t30-17z" unicode="&#xe160;"/><glyph d="M550 1100h400q165 0 257.5-92.5t92.5-257.5v-400q0-165-92.5-257.5t-257.5-92.5h-400q-21 0-35.5 14.5t-14.5 35.5v100q0 21 14.5 35.5t35.5 14.5h450q41 0 70.5 29.5t29.5 70.5v500q0 41-29.5 70.5t-70.5 29.5h-450q-21 0-35.5 14.5t-14.5 35.5v100q0 21 14.5 35.5t35.5 14.5zM338 867l324-284q16-14 16-33t-16-33l-324-284q-16-14-27-9t-11 26v150h-250q-21 0-35.5 14.5t-14.5 35.5v200q0 21 14.5 35.5t35.5 14.5h250v150q0 21 11 26t27-9z" unicode="&#xe161;"/><glyph d="M793 1182l9-9q8-10 5-27-3-11-79-225.5t-78-221.5l300 1q24 0 32.5-17.5t-5.5-35.5q-1 0-133.5-155t-267-312.5-138.5-162.5q-12-15-26-15h-9l-9 8q-9 11-4 32 2 9 42 123.5t79 224.5l39 110h-302q-23 0-31 19-10 21 6 41 75 86 209.5 237.5t228 257 98.5 111.5q9 16 25 16h9z" unicode="&#xe162;"/><glyph d="M350 1100h400q21 0 35.5-14.5t14.5-35.5v-100q0-21-14.5-35.5t-35.5-14.5h-450q-41 0-70.5-29.5t-29.5-70.5v-500q0-41 29.5-70.5t70.5-29.5h450q21 0 35.5-14.5t14.5-35.5v-100q0-21-14.5-35.5t-35.5-14.5h-400q-165 0-257.5 92.5t-92.5 257.5v400q0 165 92.5 257.5t257.5 92.5zM938 867l324-284q16-14 16-33t-16-33l-324-284q-16-14-27-9t-11 26v150h-250q-21 0-35.5 14.5t-14.5 35.5v200q0 21 14.5 35.5t35.5 14.5h250v150q0 21 11 26t27-9z" unicode="&#xe163;"/><glyph d="M750 1200h400q21 0 35.5-14.5t14.5-35.5v-400q0-21-10.5-25t-24.5 10l-109 109-312-312q-15-15-35.5-15t-35.5 15l-141 141q-15 15-15 35.5t15 35.5l312 312-109 109q-14 14-10 24.5t25 10.5zM456 900h-156q-41 0-70.5-29.5t-29.5-70.5v-500q0-41 29.5-70.5t70.5-29.5h500q41 0 70.5 29.5t29.5 70.5v148l200 200v-298q0-165-93.5-257.5t-256.5-92.5h-400q-165 0-257.5 92.5t-92.5 257.5v400q0 165 92.5 257.5t257.5 92.5h300z" unicode="&#xe164;"/><glyph d="M600 1186q119 0 227.5-46.5t187-125 125-187 46.5-227.5-46.5-227.5-125-187-187-125-227.5-46.5-227.5 46.5-187 125-125 187-46.5 227.5 46.5 227.5 125 187 187 125 227.5 46.5zM600 1022q-115 0-212-56.5t-153.5-153.5-56.5-212 56.5-212 153.5-153.5 212-56.5 212 56.5 153.5 153.5 56.5 212-56.5 212-153.5 153.5-212 56.5zM600 794q80 0 137-57t57-137-57-137-137-57-137 57-57 137 57 137 137 57z" unicode="&#xe165;"/><glyph d="M450 1200h200q21 0 35.5-14.5t14.5-35.5v-350h245q20 0 25-11t-9-26l-383-426q-14-15-33.5-15t-32.5 15l-379 426q-13 15-8.5 26t25.5 11h250v350q0 21 14.5 35.5t35.5 14.5zM50 300h1000q21 0 35.5-14.5t14.5-35.5v-250h-1100v250q0 21 14.5 35.5t35.5 14.5zM900 200v-50h100v50h-100z" unicode="&#xe166;"/><glyph d="M583 1182l378-435q14-15 9-31t-26-16h-244v-250q0-20-17-35t-39-15h-200q-20 0-32 14.5t-12 35.5v250h-250q-20 0-25.5 16.5t8.5 31.5l383 431q14 16 33.5 17t33.5-14zM50 300h1000q21 0 35.5-14.5t14.5-35.5v-250h-1100v250q0 21 14.5 35.5t35.5 14.5zM900 200v-50h100v50h-100z" unicode="&#xe167;"/><glyph d="M396 723l369 369q7 7 17.5 7t17.5-7l139-139q7-8 7-18.5t-7-17.5l-525-525q-7-8-17.5-8t-17.5 8l-292 291q-7 8-7 18t7 18l139 139q8 7 18.5 7t17.5-7zM50 300h1000q21 0 35.5-14.5t14.5-35.5v-250h-1100v250q0 21 14.5 35.5t35.5 14.5zM900 200v-50h100v50h-100z" unicode="&#xe168;"/><glyph d="M135 1023l142 142q14 14 35 14t35-14l77-77-212-212-77 76q-14 15-14 36t14 35zM655 855l210 210q14 14 24.5 10t10.5-25l-2-599q-1-20-15.5-35t-35.5-15l-597-1q-21 0-25 10.5t10 24.5l208 208-154 155 212 212zM50 300h1000q21 0 35.5-14.5t14.5-35.5v-250h-1100v250q0 21 14.5 35.5t35.5 14.5zM900 200v-50h100v50h-100z" unicode="&#xe169;"/><glyph d="M350 1200l599-2q20-1 35-15.5t15-35.5l1-597q0-21-10.5-25t-24.5 10l-208 208-155-154-212 212 155 154-210 210q-14 14-10 24.5t25 10.5zM524 512l-76-77q-15-14-36-14t-35 14l-142 142q-14 14-14 35t14 35l77 77zM50 300h1000q21 0 35.5-14.5t14.5-35.5v-250h-1100v250q0 21 14.5 35.5t35.5 14.5zM900 200v-50h100v50h-100z" unicode="&#xe170;"/><glyph d="M1200 103l-483 276-314-399v423h-399l1196 796v-1096zM483 424v-230l683 953z" unicode="&#xe171;"/><glyph d="M1100 1000v-850q0-21-14.5-35.5t-35.5-14.5h-150v400h-700v-400h-150q-21 0-35.5 14.5t-14.5 35.5v1000q0 20 14.5 35t35.5 15h250v-300h500v300h100zM700 1000h-100v200h100v-200z" unicode="&#xe172;"/><glyph d="M1100 1000l-2-149-299-299-95 95q-9 9-21.5 9t-21.5-9l-149-147h-312v-400h-150q-21 0-35.5 14.5t-14.5 35.5v1000q0 20 14.5 35t35.5 15h250v-300h500v300h100zM700 1000h-100v200h100v-200zM1132 638l106-106q7-7 7-17.5t-7-17.5l-420-421q-8-7-18-7t-18 7l-202 203q-8 7-8 17.5t8 17.5l106 106q7 8 17.5 8t17.5-8l79-79 297 297q7 7 17.5 7t17.5-7z" unicode="&#xe173;"/><glyph d="M1100 1000v-269l-103-103-134 134q-15 15-33.5 16.5t-34.5-12.5l-266-266h-329v-400h-150q-21 0-35.5 14.5t-14.5 35.5v1000q0 20 14.5 35t35.5 15h250v-300h500v300h100zM700 1000h-100v200h100v-200zM1202 572l70-70q15-15 15-35.5t-15-35.5l-131-131 131-131q15-15 15-35.5t-15-35.5l-70-70q-15-15-35.5-15t-35.5 15l-131 131-131-131q-15-15-35.5-15t-35.5 15l-70 70q-15 15-15 35.5t15 35.5l131 131-131 131q-15 15-15 35.5t15 35.5l70 70q15 15 35.5 15t35.5-15l131-131 131 131q15 15 35.5 15t35.5-15z" unicode="&#xe174;"/><glyph d="M1100 1000v-300h-350q-21 0-35.5-14.5t-14.5-35.5v-150h-500v-400h-150q-21 0-35.5 14.5t-14.5 35.5v1000q0 20 14.5 35t35.5 15h250v-300h500v300h100zM700 1000h-100v200h100v-200zM850 600h100q21 0 35.5-14.5t14.5-35.5v-250h150q21 0 25-10.5t-10-24.5l-230-230q-14-14-35-14t-35 14l-230 230q-14 14-10 24.5t25 10.5h150v250q0 21 14.5 35.5t35.5 14.5z" unicode="&#xe175;"/><glyph d="M1100 1000v-400l-165 165q-14 15-35 15t-35-15l-263-265h-402v-400h-150q-21 0-35.5 14.5t-14.5 35.5v1000q0 20 14.5 35t35.5 15h250v-300h500v300h100zM700 1000h-100v200h100v-200zM935 565l230-229q14-15 10-25.5t-25-10.5h-150v-250q0-20-14.5-35t-35.5-15h-100q-21 0-35.5 15t-14.5 35v250h-150q-21 0-25 10.5t10 25.5l230 229q14 15 35 15t35-15z" unicode="&#xe176;"/><glyph d="M50 1100h1100q21 0 35.5-14.5t14.5-35.5v-150h-1200v150q0 21 14.5 35.5t35.5 14.5zM1200 800v-550q0-21-14.5-35.5t-35.5-14.5h-1100q-21 0-35.5 14.5t-14.5 35.5v550h1200zM100 500v-200h400v200h-400z" unicode="&#xe177;"/><glyph d="M935 1165l248-230q14-14 14-35t-14-35l-248-230q-14-14-24.5-10t-10.5 25v150h-400v200h400v150q0 21 10.5 25t24.5-10zM200 800h-50q-21 0-35.5 14.5t-14.5 35.5v100q0 21 14.5 35.5t35.5 14.5h50v-200zM400 800h-100v200h100v-200zM18 435l247 230q14 14 24.5 10t10.5-25v-150h400v-200h-400v-150q0-21-10.5-25t-24.5 10l-247 230q-15 14-15 35t15 35zM900 300h-100v200h100v-200zM1000 500h51q20 0 34.5-14.5t14.5-35.5v-100q0-21-14.5-35.5t-34.5-14.5h-51v200z" unicode="&#xe178;"/><glyph d="M862 1073l276 116q25 18 43.5 8t18.5-41v-1106q0-21-14.5-35.5t-35.5-14.5h-200q-21 0-35.5 14.5t-14.5 35.5v397q-4 1-11 5t-24 17.5-30 29-24 42-11 56.5v359q0 31 18.5 65t43.5 52zM550 1200q22 0 34.5-12.5t14.5-24.5l1-13v-450q0-28-10.5-59.5t-25-56-29-45-25.5-31.5l-10-11v-447q0-21-14.5-35.5t-35.5-14.5h-200q-21 0-35.5 14.5t-14.5 35.5v447q-4 4-11 11.5t-24 30.5-30 46-24 55-11 60v450q0 2 .5 5.5t4 12 8.5 15 14.5 12 22.5 5.5q20 0 32.5-12.5t14.5-24.5l3-13v-350h100v350 5.5t2.5 12 7 15 15 12 25.5 5.5q23 0 35.5-12.5t13.5-24.5l1-13v-350h100v350q0 2 .5 5.5t3 12 7 15 15 12 24.5 5.5z" unicode="&#xe179;"/><glyph d="M1200 1100v-56q-4 0-11-.5t-24-3-30-7.5-24-15-11-24v-888q0-22 25-34.5t50-13.5l25-2v-56h-400v56q75 0 87.5 6.5t12.5 43.5v394h-500v-394q0-37 12.5-43.5t87.5-6.5v-56h-400v56q4 0 11 .5t24 3 30 7.5 24 15 11 24v888q0 22-25 34.5t-50 13.5l-25 2v56h400v-56q-75 0-87.5-6.5t-12.5-43.5v-394h500v394q0 37-12.5 43.5t-87.5 6.5v56h400z" unicode="&#xe180;"/><glyph d="M675 1000h375q21 0 35.5-14.5t14.5-35.5v-150h-105l-295-98v98l-200 200h-400l100 100h375zM100 900h300q41 0 70.5-29.5t29.5-70.5v-500q0-41-29.5-70.5t-70.5-29.5h-300q-41 0-70.5 29.5t-29.5 70.5v500q0 41 29.5 70.5t70.5 29.5zM100 800v-200h300v200h-300zM1100 535l-400-133v163l400 133v-163zM100 500v-200h300v200h-300zM1100 398v-248q0-21-14.5-35.5t-35.5-14.5h-375l-100-100h-375l-100 100h400l200 200h105z" unicode="&#xe181;"/><glyph d="M17 1007l162 162q17 17 40 14t37-22l139-194q14-20 11-44.5t-20-41.5l-119-118q102-142 228-268t267-227l119 118q17 17 42.5 19t44.5-12l192-136q19-14 22.5-37.5t-13.5-40.5l-163-162q-3-1-9.5-1t-29.5 2-47.5 6-62.5 14.5-77.5 26.5-90 42.5-101.5 60-111 83-119 108.5q-74 74-133.5 150.5t-94.5 138.5-60 119.5-34.5 100-15 74.5-4.5 48z" unicode="&#xe182;"/><glyph d="M600 1100q92 0 175-10.5t141.5-27 108.5-36.5 81.5-40 53.5-37 31-27l9-10v-200q0-21-14.5-33t-34.5-9l-202 34q-20 3-34.5 20t-14.5 38v146q-141 24-300 24t-300-24v-146q0-21-14.5-38t-34.5-20l-202-34q-20-3-34.5 9t-14.5 33v200q3 4 9.5 10.5t31 26 54 37.5 80.5 39.5 109 37.5 141 26.5 175 10.5zM600 795q56 0 97-9.5t60-23.5 30-28 12-24l1-10v-50l365-303q14-15 24.5-40t10.5-45v-212q0-21-14.5-35.5t-35.5-14.5h-1100q-21 0-35.5 14.5t-14.5 35.5v212q0 20 10.5 45t24.5 40l365 303v50q0 4 1 10.5t12 23 30 29 60 22.5 97 10z" unicode="&#xe183;"/><glyph d="M1100 700l-200-200h-600l-200 200v500h200v-200h200v200h200v-200h200v200h200v-500zM250 400h700q21 0 35.5-14.5t14.5-35.5-14.5-35.5-35.5-14.5h-12l137-100h-950l137 100h-12q-21 0-35.5 14.5t-14.5 35.5 14.5 35.5 35.5 14.5zM50 100h1100q21 0 35.5-14.5t14.5-35.5v-50h-1200v50q0 21 14.5 35.5t35.5 14.5z" unicode="&#xe184;"/><glyph d="M700 1100h-100q-41 0-70.5-29.5t-29.5-70.5v-1000h300v1000q0 41-29.5 70.5t-70.5 29.5zM1100 800h-100q-41 0-70.5-29.5t-29.5-70.5v-700h300v700q0 41-29.5 70.5t-70.5 29.5zM400 0h-300v400q0 41 29.5 70.5t70.5 29.5h100q41 0 70.5-29.5t29.5-70.5v-400z" unicode="&#xe185;"/><glyph d="M200 1100h700q124 0 212-88t88-212v-500q0-124-88-212t-212-88h-700q-124 0-212 88t-88 212v500q0 124 88 212t212 88zM100 900v-700h900v700h-900zM500 700h-200v-100h200v-300h-300v100h200v100h-200v300h300v-100zM900 700v-300l-100-100h-200v500h200zM700 700v-300h100v300h-100z" unicode="&#xe186;"/><glyph d="M200 1100h700q124 0 212-88t88-212v-500q0-124-88-212t-212-88h-700q-124 0-212 88t-88 212v500q0 124 88 212t212 88zM100 900v-700h900v700h-900zM500 300h-100v200h-100v-200h-100v500h100v-200h100v200h100v-500zM900 700v-300l-100-100h-200v500h200zM700 700v-300h100v300h-100z" unicode="&#xe187;"/><glyph d="M200 1100h700q124 0 212-88t88-212v-500q0-124-88-212t-212-88h-700q-124 0-212 88t-88 212v500q0 124 88 212t212 88zM100 900v-700h900v700h-900zM500 700h-200v-300h200v-100h-300v500h300v-100zM900 700h-200v-300h200v-100h-300v500h300v-100z" unicode="&#xe188;"/><glyph d="M200 1100h700q124 0 212-88t88-212v-500q0-124-88-212t-212-88h-700q-124 0-212 88t-88 212v500q0 124 88 212t212 88zM100 900v-700h900v700h-900zM500 400l-300 150 300 150v-300zM900 550l-300-150v300z" unicode="&#xe189;"/><glyph d="M200 1100h700q124 0 212-88t88-212v-500q0-124-88-212t-212-88h-700q-124 0-212 88t-88 212v500q0 124 88 212t212 88zM100 900v-700h900v700h-900zM900 300h-700v500h700v-500zM800 700h-130q-38 0-66.5-43t-28.5-108 27-107 68-42h130v300zM300 700v-300h130q41 0 68 42t27 107-28.5 108-66.5 43h-130z" unicode="&#xe190;"/><glyph d="M200 1100h700q124 0 212-88t88-212v-500q0-124-88-212t-212-88h-700q-124 0-212 88t-88 212v500q0 124 88 212t212 88zM100 900v-700h900v700h-900zM500 700h-200v-100h200v-300h-300v100h200v100h-200v300h300v-100zM900 300h-100v400h-100v100h200v-500zM700 300h-100v100h100v-100z" unicode="&#xe191;"/><glyph d="M200 1100h700q124 0 212-88t88-212v-500q0-124-88-212t-212-88h-700q-124 0-212 88t-88 212v500q0 124 88 212t212 88zM100 900v-700h900v700h-900zM300 700h200v-400h-300v500h100v-100zM900 300h-100v400h-100v100h200v-500zM300 600v-200h100v200h-100zM700 300h-100v100h100v-100z" unicode="&#xe192;"/><glyph d="M200 1100h700q124 0 212-88t88-212v-500q0-124-88-212t-212-88h-700q-124 0-212 88t-88 212v500q0 124 88 212t212 88zM100 900v-700h900v700h-900zM500 500l-199-200h-100v50l199 200v150h-200v100h300v-300zM900 300h-100v400h-100v100h200v-500zM701 300h-100v100h100v-100z" unicode="&#xe193;"/><glyph d="M600 1191q120 0 229.5-47t188.5-126 126-188.5 47-229.5-47-229.5-126-188.5-188.5-126-229.5-47-229.5 47-188.5 126-126 188.5-47 229.5 47 229.5 126 188.5 188.5 126 229.5 47zM600 1021q-114 0-211-56.5t-153.5-153.5-56.5-211 56.5-211 153.5-153.5 211-56.5 211 56.5 153.5 153.5 56.5 211-56.5 211-153.5 153.5-211 56.5zM800 700h-300v-200h300v-100h-300l-100 100v200l100 100h300v-100z" unicode="&#xe194;"/><glyph d="M600 1191q120 0 229.5-47t188.5-126 126-188.5 47-229.5-47-229.5-126-188.5-188.5-126-229.5-47-229.5 47-188.5 126-126 188.5-47 229.5 47 229.5 126 188.5 188.5 126 229.5 47zM600 1021q-114 0-211-56.5t-153.5-153.5-56.5-211 56.5-211 153.5-153.5 211-56.5 211 56.5 153.5 153.5 56.5 211-56.5 211-153.5 153.5-211 56.5zM800 700v-100l-50-50 100-100v-50h-100l-100 100h-150v-100h-100v400h300zM500 700v-100h200v100h-200z" unicode="&#xe195;"/><glyph d="M503 1089q110 0 200.5-59.5t134.5-156.5q44 14 90 14 120 0 205-86.5t85-207-85-207-205-86.5h-128v250q0 21-14.5 35.5t-35.5 14.5h-300q-21 0-35.5-14.5t-14.5-35.5v-250h-222q-80 0-136 57.5t-56 136.5q0 69 43 122.5t108 67.5q-2 19-2 37 0 100 49 185t134 134 185 49zM525 500h150q10 0 17.5-7.5t7.5-17.5v-275h137q21 0 26-11.5t-8-27.5l-223-244q-13-16-32-16t-32 16l-223 244q-13 16-8 27.5t26 11.5h137v275q0 10 7.5 17.5t17.5 7.5z" unicode="&#xe197;"/><glyph d="M502 1089q110 0 201-59.5t135-156.5q43 15 89 15 121 0 206-86.5t86-206.5q0-99-60-181t-150-110l-378 360q-13 16-31.5 16t-31.5-16l-381-365h-9q-79 0-135.5 57.5t-56.5 136.5q0 69 43 122.5t108 67.5q-2 19-2 38 0 100 49 184.5t133.5 134 184.5 49.5zM632 467l223-228q13-16 8-27.5t-26-11.5h-137v-275q0-10-7.5-17.5t-17.5-7.5h-150q-10 0-17.5 7.5t-7.5 17.5v275h-137q-21 0-26 11.5t8 27.5q199 204 223 228 19 19 31.5 19t32.5-19z" unicode="&#xe198;"/><glyph d="M700 100v100h400l-270 300h170l-270 300h170l-300 333-300-333h170l-270-300h170l-270-300h400v-100h-50q-21 0-35.5-14.5t-14.5-35.5v-50h400v50q0 21-14.5 35.5t-35.5 14.5h-50z" unicode="&#xe199;"/><glyph d="M600 1179q94 0 167.5-56.5t99.5-145.5q89-6 150.5-71.5t61.5-155.5q0-61-29.5-112.5t-79.5-82.5q9-29 9-55 0-74-52.5-126.5t-126.5-52.5q-55 0-100 30v-251q21 0 35.5-14.5t14.5-35.5v-50h-300v50q0 21 14.5 35.5t35.5 14.5v251q-45-30-100-30-74 0-126.5 52.5t-52.5 126.5q0 18 4 38-47 21-75.5 65t-28.5 97q0 74 52.5 126.5t126.5 52.5q5 0 23-2 0 2-1 10t-1 13q0 116 81.5 197.5t197.5 81.5z" unicode="&#xe200;"/><glyph d="M1010 1010q111-111 150.5-260.5t0-299-150.5-260.5q-83-83-191.5-126.5t-218.5-43.5-218.5 43.5-191.5 126.5q-111 111-150.5 260.5t0 299 150.5 260.5q83 83 191.5 126.5t218.5 43.5 218.5-43.5 191.5-126.5zM476 1065q-4 0-8-1-121-34-209.5-122.5t-122.5-209.5q-4-12 2.5-23t18.5-14l36-9q3-1 7-1 23 0 29 22 27 96 98 166 70 71 166 98 11 3 17.5 13.5t3.5 22.5l-9 35q-3 13-14 19-7 4-15 4zM512 920q-4 0-9-2-80-24-138.5-82.5t-82.5-138.5q-4-13 2-24t19-14l34-9q4-1 8-1 22 0 28 21 18 58 58.5 98.5t97.5 58.5q12 3 18 13.5t3 21.5l-9 35q-3 12-14 19-7 4-15 4zM719.5 719.5q-49.5 49.5-119.5 49.5t-119.5-49.5-49.5-119.5 49.5-119.5 119.5-49.5 119.5 49.5 49.5 119.5-49.5 119.5zM855 551q-22 0-28-21-18-58-58.5-98.5t-98.5-57.5q-11-4-17-14.5t-3-21.5l9-35q3-12 14-19 7-4 15-4 4 0 9 2 80 24 138.5 82.5t82.5 138.5q4 13-2.5 24t-18.5 14l-34 9q-4 1-8 1zM1000 515q-23 0-29-22-27-96-98-166-70-71-166-98-11-3-17.5-13.5t-3.5-22.5l9-35q3-13 14-19 7-4 15-4 4 0 8 1 121 34 209.5 122.5t122.5 209.5q4 12-2.5 23t-18.5 14l-36 9q-3 1-7 1z" unicode="&#xe201;"/><glyph d="M700 800h300v-380h-180v200h-340v-200h-380v755q0 10 7.5 17.5t17.5 7.5h575v-400zM1000 900h-200v200zM700 300h162l-212-212-212 212h162v200h100v-200zM520 0h-395q-10 0-17.5 7.5t-7.5 17.5v395zM1000 220v-195q0-10-7.5-17.5t-17.5-7.5h-195z" unicode="&#xe202;"/><glyph d="M700 800h300v-520l-350 350-550-550v1095q0 10 7.5 17.5t17.5 7.5h575v-400zM1000 900h-200v200zM862 200h-162v-200h-100v200h-162l212 212zM480 0h-355q-10 0-17.5 7.5t-7.5 17.5v55h380v-80zM1000 80v-55q0-10-7.5-17.5t-17.5-7.5h-155v80h180z" unicode="&#xe203;"/><glyph d="M1162 800h-162v-200h100l100-100h-300v300h-162l212 212zM200 800h200q27 0 40-2t29.5-10.5 23.5-30 7-57.5h300v-100h-600l-200-350v450h100q0 36 7 57.5t23.5 30 29.5 10.5 40 2zM800 400h240l-240-400h-800l300 500h500v-100z" unicode="&#xe204;"/><glyph d="M650 1100h100q21 0 35.5-14.5t14.5-35.5v-50h50q21 0 35.5-14.5t14.5-35.5v-100q0-21-14.5-35.5t-35.5-14.5h-300q-21 0-35.5 14.5t-14.5 35.5v100q0 21 14.5 35.5t35.5 14.5h50v50q0 21 14.5 35.5t35.5 14.5zM1000 850v150q41 0 70.5-29.5t29.5-70.5v-800q0-41-29.5-70.5t-70.5-29.5h-600q-1 0-20 4l246 246-326 326v324q0 41 29.5 70.5t70.5 29.5v-150q0-62 44-106t106-44h300q62 0 106 44t44 106zM412 250l-212-212v162h-200v100h200v162z" unicode="&#xe205;"/><glyph d="M450 1100h100q21 0 35.5-14.5t14.5-35.5v-50h50q21 0 35.5-14.5t14.5-35.5v-100q0-21-14.5-35.5t-35.5-14.5h-300q-21 0-35.5 14.5t-14.5 35.5v100q0 21 14.5 35.5t35.5 14.5h50v50q0 21 14.5 35.5t35.5 14.5zM800 850v150q41 0 70.5-29.5t29.5-70.5v-500h-200v-300h200q0-36-7-57.5t-23.5-30-29.5-10.5-40-2h-600q-41 0-70.5 29.5t-29.5 70.5v800q0 41 29.5 70.5t70.5 29.5v-150q0-62 44-106t106-44h300q62 0 106 44t44 106zM1212 250l-212-212v162h-200v100h200v162z" unicode="&#xe206;"/><glyph d="M658 1197l637-1104q23-38 7-65.5t-60-27.5h-1276q-44 0-60 27.5t7 65.5l637 1104q22 39 54 39t54-39zM704 800h-208q-20 0-32-14.5t-8-34.5l58-302q4-20 21.5-34.5t37.5-14.5h54q20 0 37.5 14.5t21.5 34.5l58 302q4 20-8 34.5t-32 14.5zM500 300v-100h200v100h-200z" unicode="&#xe209;"/><glyph d="M425 1100h250q10 0 17.5-7.5t7.5-17.5v-150q0-10-7.5-17.5t-17.5-7.5h-250q-10 0-17.5 7.5t-7.5 17.5v150q0 10 7.5 17.5t17.5 7.5zM425 800h250q10 0 17.5-7.5t7.5-17.5v-150q0-10-7.5-17.5t-17.5-7.5h-250q-10 0-17.5 7.5t-7.5 17.5v150q0 10 7.5 17.5t17.5 7.5zM825 800h250q10 0 17.5-7.5t7.5-17.5v-150q0-10-7.5-17.5t-17.5-7.5h-250q-10 0-17.5 7.5t-7.5 17.5v150q0 10 7.5 17.5t17.5 7.5zM25 500h250q10 0 17.5-7.5t7.5-17.5v-150q0-10-7.5-17.5t-17.5-7.5h-250q-10 0-17.5 7.5t-7.5 17.5v150q0 10 7.5 17.5t17.5 7.5zM425 500h250q10 0 17.5-7.5t7.5-17.5v-150q0-10-7.5-17.5t-17.5-7.5h-250q-10 0-17.5 7.5t-7.5 17.5v150q0 10 7.5 17.5t17.5 7.5zM825 500h250q10 0 17.5-7.5t7.5-17.5v-150q0-10-7.5-17.5t-17.5-7.5h-250q-10 0-17.5 7.5t-7.5 17.5v150q0 10 7.5 17.5t17.5 7.5zM25 200h250q10 0 17.5-7.5t7.5-17.5v-150q0-10-7.5-17.5t-17.5-7.5h-250q-10 0-17.5 7.5t-7.5 17.5v150q0 10 7.5 17.5t17.5 7.5zM425 200h250q10 0 17.5-7.5t7.5-17.5v-150q0-10-7.5-17.5t-17.5-7.5h-250q-10 0-17.5 7.5t-7.5 17.5v150q0 10 7.5 17.5t17.5 7.5zM825 200h250q10 0 17.5-7.5t7.5-17.5v-150q0-10-7.5-17.5t-17.5-7.5h-250q-10 0-17.5 7.5t-7.5 17.5v150q0 10 7.5 17.5t17.5 7.5z" unicode="&#xe210;"/><glyph d="M700 1200h100v-200h-100v-100h350q62 0 86.5-39.5t-3.5-94.5l-66-132q-41-83-81-134h-772q-40 51-81 134l-66 132q-28 55-3.5 94.5t86.5 39.5h350v100h-100v200h100v100h200v-100zM250 400h700q21 0 35.5-14.5t14.5-35.5-14.5-35.5-35.5-14.5h-12l137-100h-950l138 100h-13q-21 0-35.5 14.5t-14.5 35.5 14.5 35.5 35.5 14.5zM50 100h1100q21 0 35.5-14.5t14.5-35.5v-50h-1200v50q0 21 14.5 35.5t35.5 14.5z" unicode="&#xe211;"/><glyph d="M600 1300q40 0 68.5-29.5t28.5-70.5h-194q0 41 28.5 70.5t68.5 29.5zM443 1100h314q18-37 18-75 0-8-3-25h328q41 0 44.5-16.5t-30.5-38.5l-175-145h-678l-178 145q-34 22-29 38.5t46 16.5h328q-3 17-3 25 0 38 18 75zM250 700h700q21 0 35.5-14.5t14.5-35.5-14.5-35.5-35.5-14.5h-150v-200l275-200h-950l275 200v200h-150q-21 0-35.5 14.5t-14.5 35.5 14.5 35.5 35.5 14.5zM50 100h1100q21 0 35.5-14.5t14.5-35.5v-50h-1200v50q0 21 14.5 35.5t35.5 14.5z" unicode="&#xe212;"/><glyph d="M600 1181q75 0 128-53t53-128-53-128-128-53-128 53-53 128 53 128 128 53zM602 798h46q34 0 55.5-28.5t21.5-86.5q0-76 39-183h-324q39 107 39 183 0 58 21.5 86.5t56.5 28.5h45zM250 400h700q21 0 35.5-14.5t14.5-35.5-14.5-35.5-35.5-14.5h-13l138-100h-950l137 100h-12q-21 0-35.5 14.5t-14.5 35.5 14.5 35.5 35.5 14.5zM50 100h1100q21 0 35.5-14.5t14.5-35.5v-50h-1200v50q0 21 14.5 35.5t35.5 14.5z" unicode="&#xe213;"/><glyph d="M600 1300q47 0 92.5-53.5t71-123 25.5-123.5q0-78-55.5-133.5t-133.5-55.5-133.5 55.5-55.5 133.5q0 62 34 143l144-143 111 111-163 163q34 26 63 26zM602 798h46q34 0 55.5-28.5t21.5-86.5q0-76 39-183h-324q39 107 39 183 0 58 21.5 86.5t56.5 28.5h45zM250 400h700q21 0 35.5-14.5t14.5-35.5-14.5-35.5-35.5-14.5h-13l138-100h-950l137 100h-12q-21 0-35.5 14.5t-14.5 35.5 14.5 35.5 35.5 14.5zM50 100h1100q21 0 35.5-14.5t14.5-35.5v-50h-1200v50q0 21 14.5 35.5t35.5 14.5z" unicode="&#xe214;"/><glyph d="M600 1200l300-161v-139h-300q0-57 18.5-108t50-91.5 63-72 70-67.5 57.5-61h-530q-60 83-90.5 177.5t-30.5 178.5 33 164.5 87.5 139.5 126 96.5 145.5 41.5v-98zM250 400h700q21 0 35.5-14.5t14.5-35.5-14.5-35.5-35.5-14.5h-13l138-100h-950l137 100h-12q-21 0-35.5 14.5t-14.5 35.5 14.5 35.5 35.5 14.5zM50 100h1100q21 0 35.5-14.5t14.5-35.5v-50h-1200v50q0 21 14.5 35.5t35.5 14.5z" unicode="&#xe215;"/><glyph d="M600 1300q41 0 70.5-29.5t29.5-70.5v-78q46-26 73-72t27-100v-50h-400v50q0 54 27 100t73 72v78q0 41 29.5 70.5t70.5 29.5zM400 800h400q54 0 100-27t72-73h-172v-100h200v-100h-200v-100h200v-100h-200v-100h200q0-83-58.5-141.5t-141.5-58.5h-400q-83 0-141.5 58.5t-58.5 141.5v400q0 83 58.5 141.5t141.5 58.5z" unicode="&#xe216;"/><glyph d="M150 1100h900q21 0 35.5-14.5t14.5-35.5v-500q0-21-14.5-35.5t-35.5-14.5h-900q-21 0-35.5 14.5t-14.5 35.5v500q0 21 14.5 35.5t35.5 14.5zM125 400h950q10 0 17.5-7.5t7.5-17.5v-50q0-10-7.5-17.5t-17.5-7.5h-283l224-224q13-13 13-31.5t-13-32-31.5-13.5-31.5 13l-88 88h-524l-87-88q-13-13-32-13t-32 13.5-13 32 13 31.5l224 224h-289q-10 0-17.5 7.5t-7.5 17.5v50q0 10 7.5 17.5t17.5 7.5zM541 300l-100-100h324l-100 100h-124z" unicode="&#xe218;"/><glyph d="M200 1100h800q83 0 141.5-58.5t58.5-141.5v-200h-100q0 41-29.5 70.5t-70.5 29.5h-250q-41 0-70.5-29.5t-29.5-70.5h-100q0 41-29.5 70.5t-70.5 29.5h-250q-41 0-70.5-29.5t-29.5-70.5h-100v200q0 83 58.5 141.5t141.5 58.5zM100 600h1000q41 0 70.5-29.5t29.5-70.5v-300h-1200v300q0 41 29.5 70.5t70.5 29.5zM300 100v-50q0-21-14.5-35.5t-35.5-14.5h-100q-21 0-35.5 14.5t-14.5 35.5v50h200zM1100 100v-50q0-21-14.5-35.5t-35.5-14.5h-100q-21 0-35.5 14.5t-14.5 35.5v50h200z" unicode="&#xe219;"/><glyph d="M480 1165l682-683q31-31 31-75.5t-31-75.5l-131-131h-481l-517 518q-32 31-32 75.5t32 75.5l295 296q31 31 75.5 31t76.5-31zM108 794l342-342 303 304-341 341zM250 100h800q21 0 35.5-14.5t14.5-35.5v-50h-900v50q0 21 14.5 35.5t35.5 14.5z" unicode="&#xe221;"/><glyph d="M1057 647l-189 506q-8 19-27.5 33t-40.5 14h-400q-21 0-40.5-14t-27.5-33l-189-506q-8-19 1.5-33t30.5-14h625v-150q0-21 14.5-35.5t35.5-14.5 35.5 14.5 14.5 35.5v150h125q21 0 30.5 14t1.5 33zM897 0h-595v50q0 21 14.5 35.5t35.5 14.5h50v50q0 21 14.5 35.5t35.5 14.5h48v300h200v-300h47q21 0 35.5-14.5t14.5-35.5v-50h50q21 0 35.5-14.5t14.5-35.5v-50z" unicode="&#xe223;"/><glyph d="M900 800h300v-575q0-10-7.5-17.5t-17.5-7.5h-375v591l-300 300v84q0 10 7.5 17.5t17.5 7.5h375v-400zM1200 900h-200v200zM400 600h300v-575q0-10-7.5-17.5t-17.5-7.5h-650q-10 0-17.5 7.5t-7.5 17.5v950q0 10 7.5 17.5t17.5 7.5h375v-400zM700 700h-200v200z" unicode="&#xe224;"/><glyph d="M484 1095h195q75 0 146-32.5t124-86 89.5-122.5 48.5-142q18-14 35-20 31-10 64.5 6.5t43.5 48.5q10 34-15 71-19 27-9 43 5 8 12.5 11t19-1 23.5-16q41-44 39-105-3-63-46-106.5t-104-43.5h-62q-7-55-35-117t-56-100l-39-234q-3-20-20-34.5t-38-14.5h-100q-21 0-33 14.5t-9 34.5l12 70q-49-14-91-14h-195q-24 0-65 8l-11-64q-3-20-20-34.5t-38-14.5h-100q-21 0-33 14.5t-9 34.5l26 157q-84 74-128 175l-159 53q-19 7-33 26t-14 40v50q0 21 14.5 35.5t35.5 14.5h124q11 87 56 166l-111 95q-16 14-12.5 23.5t24.5 9.5h203q116 101 250 101zM675 1000h-250q-10 0-17.5-7.5t-7.5-17.5v-50q0-10 7.5-17.5t17.5-7.5h250q10 0 17.5 7.5t7.5 17.5v50q0 10-7.5 17.5t-17.5 7.5z" unicode="&#xe225;"/><glyph d="M641 900l423 247q19 8 42 2.5t37-21.5l32-38q14-15 12.5-36t-17.5-34l-139-120h-390zM50 1100h106q67 0 103-17t66-71l102-212h823q21 0 35.5-14.5t14.5-35.5v-50q0-21-14-40t-33-26l-737-132q-23-4-40 6t-26 25q-42 67-100 67h-300q-62 0-106 44t-44 106v200q0 62 44 106t106 44zM173 928h-80q-19 0-28-14t-9-35v-56q0-51 42-51h134q16 0 21.5 8t5.5 24q0 11-16 45t-27 51q-18 28-43 28zM550 727q-32 0-54.5-22.5t-22.5-54.5 22.5-54.5 54.5-22.5 54.5 22.5 22.5 54.5-22.5 54.5-54.5 22.5zM130 389l152 130q18 19 34 24t31-3.5 24.5-17.5 25.5-28q28-35 50.5-51t48.5-13l63 5 48-179q13-61-3.5-97.5t-67.5-79.5l-80-69q-47-40-109-35.5t-103 51.5l-130 151q-40 47-35.5 109.5t51.5 102.5zM380 377l-102-88q-31-27 2-65l37-43q13-15 27.5-19.5t31.5 6.5l61 53q19 16 14 49-2 20-12 56t-17 45q-11 12-19 14t-23-8z" unicode="&#xe226;"/><glyph d="M625 1200h150q10 0 17.5-7.5t7.5-17.5v-109q79-33 131-87.5t53-128.5q1-46-15-84.5t-39-61-46-38-39-21.5l-17-6q6 0 15-1.5t35-9 50-17.5 53-30 50-45 35.5-64 14.5-84q0-59-11.5-105.5t-28.5-76.5-44-51-49.5-31.5-54.5-16-49.5-6.5-43.5-1v-75q0-10-7.5-17.5t-17.5-7.5h-150q-10 0-17.5 7.5t-7.5 17.5v75h-100v-75q0-10-7.5-17.5t-17.5-7.5h-150q-10 0-17.5 7.5t-7.5 17.5v75h-175q-10 0-17.5 7.5t-7.5 17.5v150q0 10 7.5 17.5t17.5 7.5h75v600h-75q-10 0-17.5 7.5t-7.5 17.5v150q0 10 7.5 17.5t17.5 7.5h175v75q0 10 7.5 17.5t17.5 7.5h150q10 0 17.5-7.5t7.5-17.5v-75h100v75q0 10 7.5 17.5t17.5 7.5zM400 900v-200h263q28 0 48.5 10.5t30 25 15 29 5.5 25.5l1 10q0 4-.5 11t-6 24-15 30-30 24-48.5 11h-263zM400 500v-200h363q28 0 48.5 10.5t30 25 15 29 5.5 25.5l1 10q0 4-.5 11t-6 24-15 30-30 24-48.5 11h-363z" unicode="&#xe227;"/><glyph d="M212 1198h780q86 0 147-61t61-147v-416q0-51-18-142.5t-36-157.5l-18-66q-29-87-93.5-146.5t-146.5-59.5h-572q-82 0-147 59t-93 147q-8 28-20 73t-32 143.5-20 149.5v416q0 86 61 147t147 61zM600 1045q-70 0-132.5-11.5t-105.5-30.5-78.5-41.5-57-45-36-41-20.5-30.5l-6-12 156-243h560l156 243q-2 5-6 12.5t-20 29.5-36.5 42-57 44.5-79 42-105 29.5-132.5 12zM762 703h-157l195 261z" unicode="&#xe230;"/><glyph d="M475 1300h150q103 0 189-86t86-189v-500q0-41-42-83t-83-42h-450q-41 0-83 42t-42 83v500q0 103 86 189t189 86zM700 300v-225q0-21-27-48t-48-27h-150q-21 0-48 27t-27 48v225h300z" unicode="&#xe231;"/><glyph d="M475 1300h96q0-150 89.5-239.5t239.5-89.5v-446q0-41-42-83t-83-42h-450q-41 0-83 42t-42 83v500q0 103 86 189t189 86zM700 300v-225q0-21-27-48t-48-27h-150q-21 0-48 27t-27 48v225h300z" unicode="&#xe232;"/><glyph d="M1294 767l-638-283-378 170-78-60v-224l100-150v-199l-150 148-150-149v200l100 150v250q0 4-.5 10.5t0 9.5 1 8 3 8 6.5 6l47 40-147 65 642 283zM1000 380l-350-166-350 166v147l350-165 350 165v-147z" unicode="&#xe233;"/><glyph d="M250 800q62 0 106-44t44-106-44-106-106-44-106 44-44 106 44 106 106 44zM650 800q62 0 106-44t44-106-44-106-106-44-106 44-44 106 44 106 106 44zM1050 800q62 0 106-44t44-106-44-106-106-44-106 44-44 106 44 106 106 44z" unicode="&#xe234;"/><glyph d="M550 1100q62 0 106-44t44-106-44-106-106-44-106 44-44 106 44 106 106 44zM550 700q62 0 106-44t44-106-44-106-106-44-106 44-44 106 44 106 106 44zM550 300q62 0 106-44t44-106-44-106-106-44-106 44-44 106 44 106 106 44z" unicode="&#xe235;"/><glyph d="M125 1100h950q10 0 17.5-7.5t7.5-17.5v-150q0-10-7.5-17.5t-17.5-7.5h-950q-10 0-17.5 7.5t-7.5 17.5v150q0 10 7.5 17.5t17.5 7.5zM125 700h950q10 0 17.5-7.5t7.5-17.5v-150q0-10-7.5-17.5t-17.5-7.5h-950q-10 0-17.5 7.5t-7.5 17.5v150q0 10 7.5 17.5t17.5 7.5zM125 300h950q10 0 17.5-7.5t7.5-17.5v-150q0-10-7.5-17.5t-17.5-7.5h-950q-10 0-17.5 7.5t-7.5 17.5v150q0 10 7.5 17.5t17.5 7.5z" unicode="&#xe236;"/><glyph d="M350 1200h500q162 0 256-93.5t94-256.5v-500q0-165-93.5-257.5t-256.5-92.5h-500q-165 0-257.5 92.5t-92.5 257.5v500q0 165 92.5 257.5t257.5 92.5zM900 1000h-600q-41 0-70.5-29.5t-29.5-70.5v-600q0-41 29.5-70.5t70.5-29.5h600q41 0 70.5 29.5t29.5 70.5v600q0 41-29.5 70.5t-70.5 29.5zM350 900h500q21 0 35.5-14.5t14.5-35.5v-300q0-21-14.5-35.5t-35.5-14.5h-500q-21 0-35.5 14.5t-14.5 35.5v300q0 21 14.5 35.5t35.5 14.5zM400 800v-200h400v200h-400z" unicode="&#xe237;"/><glyph d="M150 1100h1000q21 0 35.5-14.5t14.5-35.5-14.5-35.5-35.5-14.5h-50v-200h50q21 0 35.5-14.5t14.5-35.5-14.5-35.5-35.5-14.5h-50v-200h50q21 0 35.5-14.5t14.5-35.5-14.5-35.5-35.5-14.5h-50v-200h50q21 0 35.5-14.5t14.5-35.5-14.5-35.5-35.5-14.5h-1000q-21 0-35.5 14.5t-14.5 35.5 14.5 35.5 35.5 14.5h50v200h-50q-21 0-35.5 14.5t-14.5 35.5 14.5 35.5 35.5 14.5h50v200h-50q-21 0-35.5 14.5t-14.5 35.5 14.5 35.5 35.5 14.5h50v200h-50q-21 0-35.5 14.5t-14.5 35.5 14.5 35.5 35.5 14.5z" unicode="&#xe238;"/><glyph d="M650 1187q87-67 118.5-156t0-178-118.5-155q-87 66-118.5 155t0 178 118.5 156zM300 800q124 0 212-88t88-212q-124 0-212 88t-88 212zM1000 800q0-124-88-212t-212-88q0 124 88 212t212 88zM300 500q124 0 212-88t88-212q-124 0-212 88t-88 212zM1000 500q0-124-88-212t-212-88q0 124 88 212t212 88zM700 199v-144q0-21-14.5-35.5t-35.5-14.5-35.5 14.5-14.5 35.5v142q40-4 43-4 17 0 57 6z" unicode="&#xe239;"/><glyph d="M745 878l69 19q25 6 45-12l298-295q11-11 15-26.5t-2-30.5q-5-14-18-23.5t-28-9.5h-8q1 0 1-13 0-29-2-56t-8.5-62-20-63-33-53-51-39-72.5-14h-146q-184 0-184 288 0 24 10 47-20 4-62 4t-63-4q11-24 11-47 0-288-184-288h-142q-48 0-84.5 21t-56 51-32 71.5-16 75-3.5 68.5q0 13 2 13h-7q-15 0-27.5 9.5t-18.5 23.5q-6 15-2 30.5t15 25.5l298 296q20 18 46 11l76-19q20-5 30.5-22.5t5.5-37.5-22.5-31-37.5-5l-51 12-182-193h891l-182 193-44-12q-20-5-37.5 6t-22.5 31 6 37.5 31 22.5z" unicode="&#xe240;"/><glyph d="M1200 900h-50q0 21-4 37t-9.5 26.5-18 17.5-22 11-28.5 5.5-31 2-37 .5h-200v-850q0-22 25-34.5t50-13.5l25-2v-100h-400v100q4 0 11 .5t24 3 30 7 24 15 11 24.5v850h-200q-25 0-37-.5t-31-2-28.5-5.5-22-11-18-17.5-9.5-26.5-4-37h-50v300h1000v-300zM500 450h-25q0 15-4 24.5t-9 14.5-17 7.5-20 3-25 .5h-100v-425q0-11 12.5-17.5t25.5-7.5h12v-50h-200v50q50 0 50 25v425h-100q-17 0-25-.5t-20-3-17-7.5-9-14.5-4-24.5h-25v150h500v-150z" unicode="&#xe241;"/><glyph d="M1000 300v50q-25 0-55 32-14 14-25 31t-16 27l-4 11-289 747h-69l-300-754q-18-35-39-56-9-9-24.5-18.5t-26.5-14.5l-11-5v-50h273v50q-49 0-78.5 21.5t-11.5 67.5l69 176h293l61-166q13-34-3.5-66.5t-55.5-32.5v-50h312zM412 691l134 342 121-342h-255zM1100 150v-100q0-21-14.5-35.5t-35.5-14.5h-1000q-21 0-35.5 14.5t-14.5 35.5v100q0 21 14.5 35.5t35.5 14.5h1000q21 0 35.5-14.5t14.5-35.5z" unicode="&#xe242;"/><glyph d="M50 1200h1100q21 0 35.5-14.5t14.5-35.5v-1100q0-21-14.5-35.5t-35.5-14.5h-1100q-21 0-35.5 14.5t-14.5 35.5v1100q0 21 14.5 35.5t35.5 14.5zM611 1118h-70q-13 0-18-12l-299-753q-17-32-35-51-18-18-56-34-12-5-12-18v-50q0-8 5.5-14t14.5-6h273q8 0 14 6t6 14v50q0 8-6 14t-14 6q-55 0-71 23-10 14 0 39l63 163h266l57-153q11-31-6-55-12-17-36-17-8 0-14-6t-6-14v-50q0-8 6-14t14-6h313q8 0 14 6t6 14v50q0 7-5.5 13t-13.5 7q-17 0-42 25-25 27-40 63h-1l-288 748q-5 12-19 12zM639 611h-197l103 264z" unicode="&#xe243;"/><glyph d="M1200 1100h-1200v100h1200v-100zM50 1000h400q21 0 35.5-14.5t14.5-35.5v-900q0-21-14.5-35.5t-35.5-14.5h-400q-21 0-35.5 14.5t-14.5 35.5v900q0 21 14.5 35.5t35.5 14.5zM650 1000h400q21 0 35.5-14.5t14.5-35.5v-400q0-21-14.5-35.5t-35.5-14.5h-400q-21 0-35.5 14.5t-14.5 35.5v400q0 21 14.5 35.5t35.5 14.5zM700 900v-300h300v300h-300z" unicode="&#xe244;"/><glyph d="M50 1200h400q21 0 35.5-14.5t14.5-35.5v-900q0-21-14.5-35.5t-35.5-14.5h-400q-21 0-35.5 14.5t-14.5 35.5v900q0 21 14.5 35.5t35.5 14.5zM650 700h400q21 0 35.5-14.5t14.5-35.5v-400q0-21-14.5-35.5t-35.5-14.5h-400q-21 0-35.5 14.5t-14.5 35.5v400q0 21 14.5 35.5t35.5 14.5zM700 600v-300h300v300h-300zM1200 0h-1200v100h1200v-100z" unicode="&#xe245;"/><glyph d="M50 1000h400q21 0 35.5-14.5t14.5-35.5v-350h100v150q0 21 14.5 35.5t35.5 14.5h400q21 0 35.5-14.5t14.5-35.5v-150h100v-100h-100v-150q0-21-14.5-35.5t-35.5-14.5h-400q-21 0-35.5 14.5t-14.5 35.5v150h-100v-350q0-21-14.5-35.5t-35.5-14.5h-400q-21 0-35.5 14.5t-14.5 35.5v800q0 21 14.5 35.5t35.5 14.5zM700 700v-300h300v300h-300z" unicode="&#xe246;"/><glyph d="M100 0h-100v1200h100v-1200zM250 1100h400q21 0 35.5-14.5t14.5-35.5v-400q0-21-14.5-35.5t-35.5-14.5h-400q-21 0-35.5 14.5t-14.5 35.5v400q0 21 14.5 35.5t35.5 14.5zM300 1000v-300h300v300h-300zM250 500h900q21 0 35.5-14.5t14.5-35.5v-400q0-21-14.5-35.5t-35.5-14.5h-900q-21 0-35.5 14.5t-14.5 35.5v400q0 21 14.5 35.5t35.5 14.5z" unicode="&#xe247;"/><glyph d="M600 1100h150q21 0 35.5-14.5t14.5-35.5v-400q0-21-14.5-35.5t-35.5-14.5h-150v-100h450q21 0 35.5-14.5t14.5-35.5v-400q0-21-14.5-35.5t-35.5-14.5h-900q-21 0-35.5 14.5t-14.5 35.5v400q0 21 14.5 35.5t35.5 14.5h350v100h-150q-21 0-35.5 14.5t-14.5 35.5v400q0 21 14.5 35.5t35.5 14.5h150v100h100v-100zM400 1000v-300h300v300h-300z" unicode="&#xe248;"/><glyph d="M1200 0h-100v1200h100v-1200zM550 1100h400q21 0 35.5-14.5t14.5-35.5v-400q0-21-14.5-35.5t-35.5-14.5h-400q-21 0-35.5 14.5t-14.5 35.5v400q0 21 14.5 35.5t35.5 14.5zM600 1000v-300h300v300h-300zM50 500h900q21 0 35.5-14.5t14.5-35.5v-400q0-21-14.5-35.5t-35.5-14.5h-900q-21 0-35.5 14.5t-14.5 35.5v400q0 21 14.5 35.5t35.5 14.5z" unicode="&#xe249;"/><glyph d="M865 565l-494-494q-23-23-41-23-14 0-22 13.5t-8 38.5v1000q0 25 8 38.5t22 13.5q18 0 41-23l494-494q14-14 14-35t-14-35z" unicode="&#xe250;"/><glyph d="M335 635l494 494q29 29 50 20.5t21-49.5v-1000q0-41-21-49.5t-50 20.5l-494 494q-14 14-14 35t14 35z" unicode="&#xe251;"/><glyph d="M100 900h1000q41 0 49.5-21t-20.5-50l-494-494q-14-14-35-14t-35 14l-494 494q-29 29-20.5 50t49.5 21z" unicode="&#xe252;"/><glyph d="M635 865l494-494q29-29 20.5-50t-49.5-21h-1000q-41 0-49.5 21t20.5 50l494 494q14 14 35 14t35-14z" unicode="&#xe253;"/><glyph d="M700 741v-182l-692-323v221l413 193-413 193v221zM1200 0h-800v200h800v-200z" unicode="&#xe254;"/><glyph d="M1200 900h-200v-100h200v-100h-300v300h200v100h-200v100h300v-300zM0 700h50q0 21 4 37t9.5 26.5 18 17.5 22 11 28.5 5.5 31 2 37 .5h100v-550q0-22-25-34.5t-50-13.5l-25-2v-100h400v100q-4 0-11 .5t-24 3-30 7-24 15-11 24.5v550h100q25 0 37-.5t31-2 28.5-5.5 22-11 18-17.5 9.5-26.5 4-37h50v300h-800v-300z" unicode="&#xe255;"/><glyph d="M800 700h-50q0 21-4 37t-9.5 26.5-18 17.5-22 11-28.5 5.5-31 2-37 .5h-100v-550q0-22 25-34.5t50-14.5l25-1v-100h-400v100q4 0 11 .5t24 3 30 7 24 15 11 24.5v550h-100q-25 0-37-.5t-31-2-28.5-5.5-22-11-18-17.5-9.5-26.5-4-37h-50v300h800v-300zM1100 200h-200v-100h200v-100h-300v300h200v100h-200v100h300v-300z" unicode="&#xe256;"/></font>
</defs>
</svg>
